<mxfile host="Electron" agent="Mozilla/5.0 (Macintosh; Intel Mac OS X 10_15_7) AppleWebKit/537.36 (KHTML, like Gecko) draw.io/26.0.7 Chrome/128.0.6613.186 Electron/32.2.5 Safari/537.36" version="26.0.7">
  <diagram id="C5RBs43oDa-KdzZeNtuy" name="Page-1">
    <mxGraphModel dx="1253" dy="1005" grid="1" gridSize="10" guides="1" tooltips="1" connect="1" arrows="1" fold="1" page="1" pageScale="1" pageWidth="827" pageHeight="1169" math="0" shadow="0">
      <root>
        <mxCell id="WIyWlLk6GJQsqaUBKTNV-0" />
        <mxCell id="WIyWlLk6GJQsqaUBKTNV-1" parent="WIyWlLk6GJQsqaUBKTNV-0" />
        <mxCell id="ztJrCpQJtUH2pCLRu5G1-19" style="edgeStyle=orthogonalEdgeStyle;rounded=0;orthogonalLoop=1;jettySize=auto;html=1;exitX=1;exitY=0.5;exitDx=0;exitDy=0;entryX=0;entryY=0.5;entryDx=0;entryDy=0;strokeColor=#0000FF;strokeWidth=2;" parent="WIyWlLk6GJQsqaUBKTNV-1" source="ztJrCpQJtUH2pCLRu5G1-5" target="mgMlBCJo3orq35vSixuU-3" edge="1">
          <mxGeometry relative="1" as="geometry" />
        </mxCell>
        <mxCell id="WIyWlLk6GJQsqaUBKTNV-7" value="&lt;div&gt;&quot;add&quot; or &quot;ask&quot;&lt;/div&gt;&lt;div&gt;&lt;span style=&quot;background-color: transparent; color: light-dark(rgb(0, 0, 0), rgb(255, 255, 255));&quot;&gt;in&amp;nbsp;&lt;/span&gt;&lt;span style=&quot;background-color: transparent; color: light-dark(rgb(0, 0, 0), rgb(255, 255, 255));&quot;&gt;Natural Language&lt;/span&gt;&lt;/div&gt;" style="rounded=1;whiteSpace=wrap;html=1;fontSize=12;glass=0;strokeWidth=1;shadow=0;align=center;" parent="WIyWlLk6GJQsqaUBKTNV-1" vertex="1">
          <mxGeometry x="158" y="560" width="82" height="60" as="geometry" />
        </mxCell>
        <mxCell id="ztJrCpQJtUH2pCLRu5G1-20" style="edgeStyle=orthogonalEdgeStyle;rounded=0;orthogonalLoop=1;jettySize=auto;html=1;exitX=1;exitY=0.5;exitDx=0;exitDy=0;entryX=0;entryY=0.5;entryDx=0;entryDy=0;strokeColor=#0000FF;strokeWidth=2;" parent="WIyWlLk6GJQsqaUBKTNV-1" source="mgMlBCJo3orq35vSixuU-3" target="ztJrCpQJtUH2pCLRu5G1-3" edge="1">
          <mxGeometry relative="1" as="geometry" />
        </mxCell>
        <mxCell id="mgMlBCJo3orq35vSixuU-3" value="Sentence&lt;div&gt;Simplification&lt;div&gt;(Ollama)&lt;/div&gt;&lt;/div&gt;" style="rounded=0;whiteSpace=wrap;html=1;fontSize=12;glass=0;strokeWidth=1;shadow=0;" parent="WIyWlLk6GJQsqaUBKTNV-1" vertex="1">
          <mxGeometry x="400" y="560" width="80" height="60" as="geometry" />
        </mxCell>
        <mxCell id="ztJrCpQJtUH2pCLRu5G1-18" style="edgeStyle=orthogonalEdgeStyle;rounded=0;orthogonalLoop=1;jettySize=auto;html=1;exitX=1;exitY=0.5;exitDx=0;exitDy=0;entryX=0;entryY=0.5;entryDx=0;entryDy=0;strokeColor=#0000FF;strokeWidth=2;" parent="WIyWlLk6GJQsqaUBKTNV-1" target="WIyWlLk6GJQsqaUBKTNV-7" edge="1">
          <mxGeometry relative="1" as="geometry">
            <mxPoint x="120.08000000000004" y="590" as="sourcePoint" />
          </mxGeometry>
        </mxCell>
        <mxCell id="ztJrCpQJtUH2pCLRu5G1-72" style="edgeStyle=orthogonalEdgeStyle;rounded=0;orthogonalLoop=1;jettySize=auto;html=1;exitX=1;exitY=0.5;exitDx=0;exitDy=0;entryX=0;entryY=0.5;entryDx=0;entryDy=0;strokeWidth=2;strokeColor=#0000FF;" parent="WIyWlLk6GJQsqaUBKTNV-1" source="ztJrCpQJtUH2pCLRu5G1-3" target="ztJrCpQJtUH2pCLRu5G1-6" edge="1">
          <mxGeometry relative="1" as="geometry" />
        </mxCell>
        <mxCell id="ztJrCpQJtUH2pCLRu5G1-3" value="&lt;div&gt;Co-reference&lt;/div&gt;&lt;div&gt;Resolution&lt;/div&gt;&lt;div&gt;(Stanford Stanza)&lt;/div&gt;" style="rounded=0;whiteSpace=wrap;html=1;fontSize=12;glass=0;strokeWidth=1;shadow=0;" parent="WIyWlLk6GJQsqaUBKTNV-1" vertex="1">
          <mxGeometry x="520" y="560" width="80" height="60" as="geometry" />
        </mxCell>
        <mxCell id="ztJrCpQJtUH2pCLRu5G1-56" style="edgeStyle=orthogonalEdgeStyle;rounded=0;orthogonalLoop=1;jettySize=auto;html=1;exitX=0.5;exitY=1;exitDx=0;exitDy=0;entryX=0.5;entryY=0;entryDx=0;entryDy=0;strokeColor=#0000FF;strokeWidth=2;" parent="WIyWlLk6GJQsqaUBKTNV-1" source="ztJrCpQJtUH2pCLRu5G1-6" target="ztJrCpQJtUH2pCLRu5G1-55" edge="1">
          <mxGeometry relative="1" as="geometry" />
        </mxCell>
        <mxCell id="ztJrCpQJtUH2pCLRu5G1-64" style="edgeStyle=orthogonalEdgeStyle;rounded=0;orthogonalLoop=1;jettySize=auto;html=1;exitX=1;exitY=0.5;exitDx=0;exitDy=0;strokeColor=#0000FF;strokeWidth=2;" parent="WIyWlLk6GJQsqaUBKTNV-1" source="ztJrCpQJtUH2pCLRu5G1-6" edge="1">
          <mxGeometry relative="1" as="geometry">
            <mxPoint x="880" y="590" as="targetPoint" />
          </mxGeometry>
        </mxCell>
        <mxCell id="ztJrCpQJtUH2pCLRu5G1-6" value="&lt;div&gt;Out of Vocab&lt;/div&gt;&lt;div&gt;Detection&lt;/div&gt;&lt;div&gt;(SS Named&lt;/div&gt;&lt;div&gt;Entity Recog)&lt;/div&gt;" style="rounded=0;whiteSpace=wrap;html=1;fontSize=12;glass=0;strokeWidth=1;shadow=0;" parent="WIyWlLk6GJQsqaUBKTNV-1" vertex="1">
          <mxGeometry x="760" y="560" width="80" height="60" as="geometry" />
        </mxCell>
        <mxCell id="ztJrCpQJtUH2pCLRu5G1-69" style="edgeStyle=orthogonalEdgeStyle;rounded=0;orthogonalLoop=1;jettySize=auto;html=1;exitX=0.5;exitY=1;exitDx=0;exitDy=0;entryX=0.5;entryY=0;entryDx=0;entryDy=0;strokeColor=#009900;strokeWidth=3;" parent="WIyWlLk6GJQsqaUBKTNV-1" source="ztJrCpQJtUH2pCLRu5G1-7" target="ztJrCpQJtUH2pCLRu5G1-10" edge="1">
          <mxGeometry relative="1" as="geometry" />
        </mxCell>
        <mxCell id="ztJrCpQJtUH2pCLRu5G1-7" value="&lt;div&gt;Language to&lt;/div&gt;&lt;div&gt;Logic Model&lt;/div&gt;" style="rounded=1;whiteSpace=wrap;html=1;fontSize=12;glass=0;strokeWidth=1;shadow=0;align=center;" parent="WIyWlLk6GJQsqaUBKTNV-1" vertex="1">
          <mxGeometry x="1000.24" y="420" width="80" height="60" as="geometry" />
        </mxCell>
        <mxCell id="ztJrCpQJtUH2pCLRu5G1-27" style="edgeStyle=orthogonalEdgeStyle;rounded=0;orthogonalLoop=1;jettySize=auto;html=1;exitX=0;exitY=0.5;exitDx=0;exitDy=0;entryX=1;entryY=0.5;entryDx=0;entryDy=0;strokeColor=#009900;strokeWidth=3;" parent="WIyWlLk6GJQsqaUBKTNV-1" source="ztJrCpQJtUH2pCLRu5G1-8" target="ztJrCpQJtUH2pCLRu5G1-9" edge="1">
          <mxGeometry relative="1" as="geometry" />
        </mxCell>
        <mxCell id="ztJrCpQJtUH2pCLRu5G1-8" value="&lt;div&gt;Logic with&lt;/div&gt;&lt;div&gt;Out of Vocab&lt;/div&gt;&lt;div&gt;Terms&lt;/div&gt;" style="rounded=1;whiteSpace=wrap;html=1;fontSize=12;glass=0;strokeWidth=1;shadow=0;align=center;" parent="WIyWlLk6GJQsqaUBKTNV-1" vertex="1">
          <mxGeometry x="880.12" y="700" width="80" height="60" as="geometry" />
        </mxCell>
        <mxCell id="ztJrCpQJtUH2pCLRu5G1-28" style="edgeStyle=orthogonalEdgeStyle;rounded=0;orthogonalLoop=1;jettySize=auto;html=1;exitX=0;exitY=0.5;exitDx=0;exitDy=0;entryX=1;entryY=0.5;entryDx=0;entryDy=0;strokeColor=#009900;strokeWidth=3;" parent="WIyWlLk6GJQsqaUBKTNV-1" source="ztJrCpQJtUH2pCLRu5G1-9" edge="1">
          <mxGeometry relative="1" as="geometry">
            <mxPoint x="720.12" y="730" as="targetPoint" />
          </mxGeometry>
        </mxCell>
        <mxCell id="ztJrCpQJtUH2pCLRu5G1-9" value="&lt;div&gt;Out of Vocab&lt;/div&gt;&lt;div&gt;Replacement&lt;/div&gt;" style="rounded=0;whiteSpace=wrap;html=1;fontSize=12;glass=0;strokeWidth=1;shadow=0;" parent="WIyWlLk6GJQsqaUBKTNV-1" vertex="1">
          <mxGeometry x="760.12" y="700" width="80" height="60" as="geometry" />
        </mxCell>
        <mxCell id="ztJrCpQJtUH2pCLRu5G1-26" style="edgeStyle=orthogonalEdgeStyle;rounded=0;orthogonalLoop=1;jettySize=auto;html=1;exitX=0;exitY=0.5;exitDx=0;exitDy=0;entryX=1;entryY=0.5;entryDx=0;entryDy=0;strokeColor=#009900;strokeWidth=3;" parent="WIyWlLk6GJQsqaUBKTNV-1" source="ztJrCpQJtUH2pCLRu5G1-10" target="ztJrCpQJtUH2pCLRu5G1-8" edge="1">
          <mxGeometry relative="1" as="geometry" />
        </mxCell>
        <mxCell id="ztJrCpQJtUH2pCLRu5G1-10" value="Google T5&lt;div&gt;Running&lt;/div&gt;" style="rounded=0;whiteSpace=wrap;html=1;fontSize=12;glass=0;strokeWidth=1;shadow=0;" parent="WIyWlLk6GJQsqaUBKTNV-1" vertex="1">
          <mxGeometry x="1000.24" y="700" width="80" height="60" as="geometry" />
        </mxCell>
        <mxCell id="z5JH_8kvvvPdWUhcaSUW-15" style="edgeStyle=orthogonalEdgeStyle;rounded=0;orthogonalLoop=1;jettySize=auto;html=1;exitX=0.5;exitY=0;exitDx=0;exitDy=0;entryX=0.5;entryY=1;entryDx=0;entryDy=0;strokeWidth=3;strokeColor=#009900;" edge="1" parent="WIyWlLk6GJQsqaUBKTNV-1" source="ztJrCpQJtUH2pCLRu5G1-11" target="z5JH_8kvvvPdWUhcaSUW-0">
          <mxGeometry relative="1" as="geometry" />
        </mxCell>
        <mxCell id="z5JH_8kvvvPdWUhcaSUW-18" style="edgeStyle=orthogonalEdgeStyle;rounded=0;orthogonalLoop=1;jettySize=auto;html=1;exitX=0;exitY=0.5;exitDx=0;exitDy=0;strokeWidth=3;strokeColor=#009900;" edge="1" parent="WIyWlLk6GJQsqaUBKTNV-1" source="ztJrCpQJtUH2pCLRu5G1-11">
          <mxGeometry relative="1" as="geometry">
            <mxPoint x="600" y="730.3103448275863" as="targetPoint" />
          </mxGeometry>
        </mxCell>
        <mxCell id="ztJrCpQJtUH2pCLRu5G1-11" value="&lt;div&gt;&lt;span style=&quot;background-color: transparent; color: light-dark(rgb(0, 0, 0), rgb(255, 255, 255));&quot;&gt;Logic&lt;/span&gt;&lt;/div&gt;" style="rounded=1;whiteSpace=wrap;html=1;fontSize=12;glass=0;strokeWidth=1;shadow=0;align=center;" parent="WIyWlLk6GJQsqaUBKTNV-1" vertex="1">
          <mxGeometry x="640" y="700" width="80" height="60" as="geometry" />
        </mxCell>
        <mxCell id="ztJrCpQJtUH2pCLRu5G1-32" style="edgeStyle=orthogonalEdgeStyle;rounded=0;orthogonalLoop=1;jettySize=auto;html=1;exitX=0;exitY=0.5;exitDx=0;exitDy=0;entryX=1;entryY=0.5;entryDx=0;entryDy=0;strokeColor=#009900;strokeWidth=3;" parent="WIyWlLk6GJQsqaUBKTNV-1" source="ztJrCpQJtUH2pCLRu5G1-14" target="ztJrCpQJtUH2pCLRu5G1-15" edge="1">
          <mxGeometry relative="1" as="geometry" />
        </mxCell>
        <mxCell id="z5JH_8kvvvPdWUhcaSUW-19" style="edgeStyle=orthogonalEdgeStyle;rounded=0;orthogonalLoop=1;jettySize=auto;html=1;exitX=0.5;exitY=1;exitDx=0;exitDy=0;entryX=1;entryY=0.5;entryDx=0;entryDy=0;strokeWidth=3;strokeColor=#009900;" edge="1" parent="WIyWlLk6GJQsqaUBKTNV-1" source="ztJrCpQJtUH2pCLRu5G1-14" target="z5JH_8kvvvPdWUhcaSUW-14">
          <mxGeometry relative="1" as="geometry" />
        </mxCell>
        <mxCell id="ztJrCpQJtUH2pCLRu5G1-14" value="Automated&lt;div&gt;Theorem&lt;/div&gt;&lt;div&gt;Prover&lt;/div&gt;" style="rounded=0;whiteSpace=wrap;html=1;fontSize=12;glass=0;strokeWidth=1;shadow=0;" parent="WIyWlLk6GJQsqaUBKTNV-1" vertex="1">
          <mxGeometry x="520" y="700" width="80" height="60" as="geometry" />
        </mxCell>
        <mxCell id="ztJrCpQJtUH2pCLRu5G1-33" style="edgeStyle=orthogonalEdgeStyle;rounded=0;orthogonalLoop=1;jettySize=auto;html=1;exitX=0;exitY=0.5;exitDx=0;exitDy=0;strokeColor=#009900;strokeWidth=3;" parent="WIyWlLk6GJQsqaUBKTNV-1" source="ztJrCpQJtUH2pCLRu5G1-15" edge="1">
          <mxGeometry relative="1" as="geometry">
            <mxPoint x="360" y="730" as="targetPoint" />
          </mxGeometry>
        </mxCell>
        <mxCell id="ztJrCpQJtUH2pCLRu5G1-15" value="&lt;div&gt;&lt;span style=&quot;background-color: transparent; color: light-dark(rgb(0, 0, 0), rgb(255, 255, 255));&quot;&gt;&quot;ask&quot; Result&lt;/span&gt;&lt;/div&gt;&lt;div&gt;&lt;span style=&quot;background-color: transparent; color: light-dark(rgb(0, 0, 0), rgb(255, 255, 255));&quot;&gt;THM+Proof&lt;/span&gt;&lt;/div&gt;" style="rounded=1;whiteSpace=wrap;html=1;fontSize=12;glass=0;strokeWidth=1;shadow=0;align=center;" parent="WIyWlLk6GJQsqaUBKTNV-1" vertex="1">
          <mxGeometry x="400" y="700" width="80" height="60" as="geometry" />
        </mxCell>
        <mxCell id="ztJrCpQJtUH2pCLRu5G1-34" style="edgeStyle=orthogonalEdgeStyle;rounded=0;orthogonalLoop=1;jettySize=auto;html=1;exitX=0;exitY=0.5;exitDx=0;exitDy=0;entryX=1;entryY=0.5;entryDx=0;entryDy=0;strokeColor=#009900;strokeWidth=3;" parent="WIyWlLk6GJQsqaUBKTNV-1" source="ztJrCpQJtUH2pCLRu5G1-16" target="ztJrCpQJtUH2pCLRu5G1-17" edge="1">
          <mxGeometry relative="1" as="geometry" />
        </mxCell>
        <mxCell id="ztJrCpQJtUH2pCLRu5G1-16" value="Proof to&lt;div&gt;Language&lt;/div&gt;&lt;div&gt;(Ollama)&lt;/div&gt;" style="rounded=0;whiteSpace=wrap;html=1;fontSize=12;glass=0;strokeWidth=1;shadow=0;" parent="WIyWlLk6GJQsqaUBKTNV-1" vertex="1">
          <mxGeometry x="279.91999999999996" y="700" width="80" height="60" as="geometry" />
        </mxCell>
        <mxCell id="ztJrCpQJtUH2pCLRu5G1-35" style="edgeStyle=orthogonalEdgeStyle;rounded=0;orthogonalLoop=1;jettySize=auto;html=1;exitX=0;exitY=0.5;exitDx=0;exitDy=0;entryX=1;entryY=0.5;entryDx=0;entryDy=0;strokeColor=#009900;strokeWidth=3;" parent="WIyWlLk6GJQsqaUBKTNV-1" source="ztJrCpQJtUH2pCLRu5G1-17" edge="1">
          <mxGeometry relative="1" as="geometry">
            <mxPoint x="120.08000000000004" y="730" as="targetPoint" />
          </mxGeometry>
        </mxCell>
        <mxCell id="ztJrCpQJtUH2pCLRu5G1-17" value="&lt;div&gt;Answer in Natural Language&lt;/div&gt;" style="rounded=1;whiteSpace=wrap;html=1;fontSize=12;glass=0;strokeWidth=1;shadow=0;align=center;" parent="WIyWlLk6GJQsqaUBKTNV-1" vertex="1">
          <mxGeometry x="158" y="700" width="82" height="60" as="geometry" />
        </mxCell>
        <mxCell id="ztJrCpQJtUH2pCLRu5G1-40" style="edgeStyle=orthogonalEdgeStyle;rounded=0;orthogonalLoop=1;jettySize=auto;html=1;exitX=1;exitY=0.5;exitDx=0;exitDy=0;entryX=0;entryY=0.5;entryDx=0;entryDy=0;strokeColor=#FF0000;" parent="WIyWlLk6GJQsqaUBKTNV-1" source="ztJrCpQJtUH2pCLRu5G1-36" target="ztJrCpQJtUH2pCLRu5G1-38" edge="1">
          <mxGeometry relative="1" as="geometry" />
        </mxCell>
        <mxCell id="ztJrCpQJtUH2pCLRu5G1-36" value="&lt;div&gt;SUMO&lt;/div&gt;" style="rounded=1;whiteSpace=wrap;html=1;fontSize=12;glass=0;strokeWidth=1;shadow=0;align=center;" parent="WIyWlLk6GJQsqaUBKTNV-1" vertex="1">
          <mxGeometry x="158" y="430" width="82" height="40" as="geometry" />
        </mxCell>
        <mxCell id="ztJrCpQJtUH2pCLRu5G1-45" style="edgeStyle=orthogonalEdgeStyle;rounded=0;orthogonalLoop=1;jettySize=auto;html=1;exitX=1;exitY=0.5;exitDx=0;exitDy=0;entryX=0;entryY=0.5;entryDx=0;entryDy=0;strokeColor=#FF0000;" parent="WIyWlLk6GJQsqaUBKTNV-1" source="ztJrCpQJtUH2pCLRu5G1-37" target="ztJrCpQJtUH2pCLRu5G1-44" edge="1">
          <mxGeometry relative="1" as="geometry" />
        </mxCell>
        <mxCell id="ztJrCpQJtUH2pCLRu5G1-37" value="AutoDoc" style="rounded=0;whiteSpace=wrap;html=1;fontSize=12;glass=0;strokeWidth=1;shadow=0;" parent="WIyWlLk6GJQsqaUBKTNV-1" vertex="1">
          <mxGeometry x="279.91999999999996" y="420" width="80" height="20" as="geometry" />
        </mxCell>
        <mxCell id="ztJrCpQJtUH2pCLRu5G1-50" style="edgeStyle=orthogonalEdgeStyle;rounded=0;orthogonalLoop=1;jettySize=auto;html=1;exitX=1;exitY=0.5;exitDx=0;exitDy=0;strokeColor=#FF0000;entryX=0;entryY=0.5;entryDx=0;entryDy=0;" parent="WIyWlLk6GJQsqaUBKTNV-1" source="ztJrCpQJtUH2pCLRu5G1-38" target="ztJrCpQJtUH2pCLRu5G1-41" edge="1">
          <mxGeometry relative="1" as="geometry">
            <mxPoint x="439.88" y="450" as="targetPoint" />
          </mxGeometry>
        </mxCell>
        <mxCell id="ztJrCpQJtUH2pCLRu5G1-38" value="RelInst" style="rounded=0;whiteSpace=wrap;html=1;fontSize=12;glass=0;strokeWidth=1;shadow=0;" parent="WIyWlLk6GJQsqaUBKTNV-1" vertex="1">
          <mxGeometry x="279.91999999999996" y="440" width="80" height="20" as="geometry" />
        </mxCell>
        <mxCell id="ztJrCpQJtUH2pCLRu5G1-51" style="edgeStyle=orthogonalEdgeStyle;rounded=0;orthogonalLoop=1;jettySize=auto;html=1;exitX=1;exitY=0.5;exitDx=0;exitDy=0;entryX=0;entryY=0.5;entryDx=0;entryDy=0;strokeColor=#FF0000;" parent="WIyWlLk6GJQsqaUBKTNV-1" source="ztJrCpQJtUH2pCLRu5G1-39" target="ztJrCpQJtUH2pCLRu5G1-41" edge="1">
          <mxGeometry relative="1" as="geometry">
            <Array as="points">
              <mxPoint x="600" y="470" />
              <mxPoint x="600" y="450" />
            </Array>
          </mxGeometry>
        </mxCell>
        <mxCell id="ztJrCpQJtUH2pCLRu5G1-39" value="GenSym" style="rounded=0;whiteSpace=wrap;html=1;fontSize=12;glass=0;strokeWidth=1;shadow=0;" parent="WIyWlLk6GJQsqaUBKTNV-1" vertex="1">
          <mxGeometry x="279.91999999999996" y="460" width="80" height="20" as="geometry" />
        </mxCell>
        <mxCell id="ztJrCpQJtUH2pCLRu5G1-41" value="&lt;div&gt;Logic-Language&lt;/div&gt;&lt;div&gt;Pairs&lt;/div&gt;" style="rounded=1;whiteSpace=wrap;html=1;fontSize=12;glass=0;strokeWidth=1;shadow=0;align=center;" parent="WIyWlLk6GJQsqaUBKTNV-1" vertex="1">
          <mxGeometry x="640" y="420" width="80" height="60" as="geometry" />
        </mxCell>
        <mxCell id="ztJrCpQJtUH2pCLRu5G1-53" style="edgeStyle=orthogonalEdgeStyle;rounded=0;orthogonalLoop=1;jettySize=auto;html=1;exitX=0.5;exitY=1;exitDx=0;exitDy=0;entryX=0.5;entryY=0;entryDx=0;entryDy=0;strokeColor=#FF0000;" parent="WIyWlLk6GJQsqaUBKTNV-1" source="ztJrCpQJtUH2pCLRu5G1-42" target="ztJrCpQJtUH2pCLRu5G1-43" edge="1">
          <mxGeometry relative="1" as="geometry" />
        </mxCell>
        <mxCell id="ztJrCpQJtUH2pCLRu5G1-58" style="edgeStyle=orthogonalEdgeStyle;rounded=0;orthogonalLoop=1;jettySize=auto;html=1;exitX=1;exitY=0.5;exitDx=0;exitDy=0;strokeColor=#FF0000;" parent="WIyWlLk6GJQsqaUBKTNV-1" source="ztJrCpQJtUH2pCLRu5G1-42" edge="1">
          <mxGeometry relative="1" as="geometry">
            <mxPoint x="1000" y="450" as="targetPoint" />
          </mxGeometry>
        </mxCell>
        <mxCell id="ztJrCpQJtUH2pCLRu5G1-42" value="Google T5&lt;div&gt;Training&lt;/div&gt;" style="rounded=0;whiteSpace=wrap;html=1;fontSize=12;glass=0;strokeWidth=1;shadow=0;" parent="WIyWlLk6GJQsqaUBKTNV-1" vertex="1">
          <mxGeometry x="759.9999999999998" y="420" width="80" height="60" as="geometry" />
        </mxCell>
        <mxCell id="ztJrCpQJtUH2pCLRu5G1-54" style="edgeStyle=orthogonalEdgeStyle;rounded=0;orthogonalLoop=1;jettySize=auto;html=1;exitX=0.5;exitY=1;exitDx=0;exitDy=0;entryX=0.5;entryY=0;entryDx=0;entryDy=0;strokeColor=#0000FF;strokeWidth=2;" parent="WIyWlLk6GJQsqaUBKTNV-1" source="ztJrCpQJtUH2pCLRu5G1-43" target="ztJrCpQJtUH2pCLRu5G1-6" edge="1">
          <mxGeometry relative="1" as="geometry" />
        </mxCell>
        <mxCell id="ztJrCpQJtUH2pCLRu5G1-43" value="&lt;div&gt;Vocabulary&lt;/div&gt;" style="rounded=1;whiteSpace=wrap;html=1;fontSize=12;glass=0;strokeWidth=1;shadow=0;align=center;" parent="WIyWlLk6GJQsqaUBKTNV-1" vertex="1">
          <mxGeometry x="760" y="500" width="80.12" height="40" as="geometry" />
        </mxCell>
        <mxCell id="ztJrCpQJtUH2pCLRu5G1-47" style="edgeStyle=orthogonalEdgeStyle;rounded=0;orthogonalLoop=1;jettySize=auto;html=1;exitX=1;exitY=0.5;exitDx=0;exitDy=0;entryX=0;entryY=0.5;entryDx=0;entryDy=0;strokeColor=#FF0000;" parent="WIyWlLk6GJQsqaUBKTNV-1" source="ztJrCpQJtUH2pCLRu5G1-44" target="ztJrCpQJtUH2pCLRu5G1-41" edge="1">
          <mxGeometry relative="1" as="geometry">
            <Array as="points">
              <mxPoint x="600" y="430" />
              <mxPoint x="600" y="450" />
            </Array>
          </mxGeometry>
        </mxCell>
        <mxCell id="ztJrCpQJtUH2pCLRu5G1-44" value="Ollama" style="rounded=0;whiteSpace=wrap;html=1;fontSize=12;glass=0;strokeWidth=1;shadow=0;" parent="WIyWlLk6GJQsqaUBKTNV-1" vertex="1">
          <mxGeometry x="400" y="420" width="80" height="20" as="geometry" />
        </mxCell>
        <mxCell id="ztJrCpQJtUH2pCLRu5G1-52" style="edgeStyle=orthogonalEdgeStyle;rounded=0;orthogonalLoop=1;jettySize=auto;html=1;exitX=1;exitY=0.5;exitDx=0;exitDy=0;entryX=0;entryY=0.5;entryDx=0;entryDy=0;strokeColor=#FF0000;" parent="WIyWlLk6GJQsqaUBKTNV-1" source="ztJrCpQJtUH2pCLRu5G1-41" target="ztJrCpQJtUH2pCLRu5G1-42" edge="1">
          <mxGeometry relative="1" as="geometry" />
        </mxCell>
        <mxCell id="ztJrCpQJtUH2pCLRu5G1-57" style="edgeStyle=orthogonalEdgeStyle;rounded=0;orthogonalLoop=1;jettySize=auto;html=1;exitX=0.5;exitY=1;exitDx=0;exitDy=0;entryX=0.5;entryY=0;entryDx=0;entryDy=0;strokeColor=#009900;strokeWidth=3;" parent="WIyWlLk6GJQsqaUBKTNV-1" source="ztJrCpQJtUH2pCLRu5G1-55" target="ztJrCpQJtUH2pCLRu5G1-9" edge="1">
          <mxGeometry relative="1" as="geometry" />
        </mxCell>
        <mxCell id="ztJrCpQJtUH2pCLRu5G1-55" value="&lt;div&gt;Out of Vocab&lt;/div&gt;&lt;div&gt;Memory&lt;/div&gt;" style="rounded=1;whiteSpace=wrap;html=1;fontSize=12;glass=0;strokeWidth=1;shadow=0;align=center;" parent="WIyWlLk6GJQsqaUBKTNV-1" vertex="1">
          <mxGeometry x="759.88" y="640" width="80.12" height="40" as="geometry" />
        </mxCell>
        <mxCell id="ztJrCpQJtUH2pCLRu5G1-65" style="edgeStyle=orthogonalEdgeStyle;rounded=0;orthogonalLoop=1;jettySize=auto;html=1;exitX=1;exitY=0.5;exitDx=0;exitDy=0;entryX=0.25;entryY=0;entryDx=0;entryDy=0;strokeColor=#009900;strokeWidth=3;" parent="WIyWlLk6GJQsqaUBKTNV-1" source="ztJrCpQJtUH2pCLRu5G1-62" target="ztJrCpQJtUH2pCLRu5G1-10" edge="1">
          <mxGeometry relative="1" as="geometry">
            <mxPoint x="1028" y="700" as="targetPoint" />
          </mxGeometry>
        </mxCell>
        <mxCell id="ztJrCpQJtUH2pCLRu5G1-62" value="&lt;div&gt;Query for&lt;/div&gt;&lt;div&gt;Model&lt;/div&gt;" style="rounded=1;whiteSpace=wrap;html=1;fontSize=12;glass=0;strokeWidth=1;shadow=0;align=center;" parent="WIyWlLk6GJQsqaUBKTNV-1" vertex="1">
          <mxGeometry x="880.12" y="560" width="80" height="60" as="geometry" />
        </mxCell>
        <mxCell id="ztJrCpQJtUH2pCLRu5G1-71" value="" style="edgeStyle=orthogonalEdgeStyle;rounded=0;orthogonalLoop=1;jettySize=auto;html=1;exitX=1;exitY=0.5;exitDx=0;exitDy=0;entryX=0;entryY=0.5;entryDx=0;entryDy=0;strokeColor=#0000FF;strokeWidth=2;" parent="WIyWlLk6GJQsqaUBKTNV-1" source="WIyWlLk6GJQsqaUBKTNV-7" target="ztJrCpQJtUH2pCLRu5G1-5" edge="1">
          <mxGeometry relative="1" as="geometry">
            <mxPoint x="240" y="590" as="sourcePoint" />
            <mxPoint x="400" y="590" as="targetPoint" />
          </mxGeometry>
        </mxCell>
        <mxCell id="ztJrCpQJtUH2pCLRu5G1-5" value="&lt;div&gt;Metaphor&lt;/div&gt;&lt;div&gt;Rephrasing&lt;/div&gt;&lt;div&gt;(Ollama)&lt;/div&gt;" style="rounded=0;whiteSpace=wrap;html=1;fontSize=12;glass=0;strokeWidth=1;shadow=0;" parent="WIyWlLk6GJQsqaUBKTNV-1" vertex="1">
          <mxGeometry x="279.91999999999996" y="560" width="80" height="60" as="geometry" />
        </mxCell>
        <mxCell id="ztJrCpQJtUH2pCLRu5G1-73" value="&lt;div&gt;Rounded&lt;/div&gt;&lt;div&gt;boxes&amp;nbsp;&lt;span style=&quot;background-color: transparent; color: light-dark(rgb(0, 0, 0), rgb(255, 255, 255));&quot;&gt;for&lt;/span&gt;&lt;/div&gt;&lt;div&gt;Data&lt;/div&gt;" style="rounded=1;whiteSpace=wrap;html=1;fontSize=12;glass=0;strokeWidth=1;shadow=0;align=center;" parent="WIyWlLk6GJQsqaUBKTNV-1" vertex="1">
          <mxGeometry x="158" y="880" width="82" height="60" as="geometry" />
        </mxCell>
        <mxCell id="ztJrCpQJtUH2pCLRu5G1-74" value="Squared&lt;div&gt;boxes&amp;nbsp;&lt;span style=&quot;background-color: transparent; color: light-dark(rgb(0, 0, 0), rgb(255, 255, 255));&quot;&gt;for&lt;/span&gt;&lt;div&gt;Processes&lt;/div&gt;&lt;/div&gt;" style="rounded=0;whiteSpace=wrap;html=1;fontSize=12;glass=0;strokeWidth=1;shadow=0;" parent="WIyWlLk6GJQsqaUBKTNV-1" vertex="1">
          <mxGeometry x="279.91999999999996" y="880" width="80" height="60" as="geometry" />
        </mxCell>
        <mxCell id="ztJrCpQJtUH2pCLRu5G1-75" value="" style="endArrow=classic;html=1;rounded=0;strokeColor=#FF0000;" parent="WIyWlLk6GJQsqaUBKTNV-1" edge="1">
          <mxGeometry width="50" height="50" relative="1" as="geometry">
            <mxPoint x="380" y="895" as="sourcePoint" />
            <mxPoint x="420" y="895" as="targetPoint" />
          </mxGeometry>
        </mxCell>
        <mxCell id="ztJrCpQJtUH2pCLRu5G1-76" value="&lt;b&gt;Key&lt;/b&gt;" style="text;strokeColor=none;align=center;fillColor=none;html=1;verticalAlign=middle;whiteSpace=wrap;rounded=0;" parent="WIyWlLk6GJQsqaUBKTNV-1" vertex="1">
          <mxGeometry x="70.04000000000002" y="880" width="60" height="30" as="geometry" />
        </mxCell>
        <mxCell id="ztJrCpQJtUH2pCLRu5G1-77" value="" style="endArrow=classic;html=1;rounded=0;strokeColor=#0000FF;strokeWidth=2;" parent="WIyWlLk6GJQsqaUBKTNV-1" edge="1">
          <mxGeometry width="50" height="50" relative="1" as="geometry">
            <mxPoint x="380" y="914.5" as="sourcePoint" />
            <mxPoint x="420" y="914.5" as="targetPoint" />
          </mxGeometry>
        </mxCell>
        <mxCell id="ztJrCpQJtUH2pCLRu5G1-78" value="" style="endArrow=classic;html=1;rounded=0;strokeColor=#009900;strokeWidth=3;" parent="WIyWlLk6GJQsqaUBKTNV-1" edge="1">
          <mxGeometry width="50" height="50" relative="1" as="geometry">
            <mxPoint x="380" y="935" as="sourcePoint" />
            <mxPoint x="420" y="935" as="targetPoint" />
          </mxGeometry>
        </mxCell>
        <mxCell id="ztJrCpQJtUH2pCLRu5G1-79" value="Thick green - query solving" style="text;strokeColor=none;align=center;fillColor=none;html=1;verticalAlign=middle;whiteSpace=wrap;rounded=0;" parent="WIyWlLk6GJQsqaUBKTNV-1" vertex="1">
          <mxGeometry x="410" y="921" width="180" height="30" as="geometry" />
        </mxCell>
        <mxCell id="ztJrCpQJtUH2pCLRu5G1-80" value="Medium blue - query preparation" style="text;strokeColor=none;align=center;fillColor=none;html=1;verticalAlign=middle;whiteSpace=wrap;rounded=0;" parent="WIyWlLk6GJQsqaUBKTNV-1" vertex="1">
          <mxGeometry x="410" y="900" width="210" height="30" as="geometry" />
        </mxCell>
        <mxCell id="ztJrCpQJtUH2pCLRu5G1-81" value="Thin red - training" style="text;strokeColor=none;align=center;fillColor=none;html=1;verticalAlign=middle;whiteSpace=wrap;rounded=0;" parent="WIyWlLk6GJQsqaUBKTNV-1" vertex="1">
          <mxGeometry x="410" y="880" width="130" height="30" as="geometry" />
        </mxCell>
        <mxCell id="z5JH_8kvvvPdWUhcaSUW-13" style="edgeStyle=orthogonalEdgeStyle;rounded=0;orthogonalLoop=1;jettySize=auto;html=1;exitX=0;exitY=0.5;exitDx=0;exitDy=0;entryX=1;entryY=0.5;entryDx=0;entryDy=0;strokeColor=#009900;strokeWidth=3;" edge="1" parent="WIyWlLk6GJQsqaUBKTNV-1" source="z5JH_8kvvvPdWUhcaSUW-0" target="ztJrCpQJtUH2pCLRu5G1-14">
          <mxGeometry relative="1" as="geometry">
            <Array as="points">
              <mxPoint x="630" y="660" />
              <mxPoint x="630" y="730" />
            </Array>
          </mxGeometry>
        </mxCell>
        <mxCell id="z5JH_8kvvvPdWUhcaSUW-0" value="&lt;div&gt;&quot;add&quot;&lt;/div&gt;&lt;div&gt;Memory&lt;/div&gt;" style="rounded=1;whiteSpace=wrap;html=1;fontSize=12;glass=0;strokeWidth=1;shadow=0;align=center;" vertex="1" parent="WIyWlLk6GJQsqaUBKTNV-1">
          <mxGeometry x="640" y="640" width="80.12" height="40" as="geometry" />
        </mxCell>
        <mxCell id="z5JH_8kvvvPdWUhcaSUW-12" style="edgeStyle=orthogonalEdgeStyle;rounded=0;orthogonalLoop=1;jettySize=auto;html=1;exitX=0.5;exitY=1;exitDx=0;exitDy=0;entryX=0.5;entryY=0;entryDx=0;entryDy=0;strokeWidth=3;strokeColor=#009900;" edge="1" parent="WIyWlLk6GJQsqaUBKTNV-1" source="ztJrCpQJtUH2pCLRu5G1-59" target="ztJrCpQJtUH2pCLRu5G1-14">
          <mxGeometry relative="1" as="geometry" />
        </mxCell>
        <mxCell id="ztJrCpQJtUH2pCLRu5G1-59" value="&lt;div&gt;SUMO&lt;/div&gt;" style="rounded=1;whiteSpace=wrap;html=1;fontSize=12;glass=0;strokeWidth=1;shadow=0;align=center;" parent="WIyWlLk6GJQsqaUBKTNV-1" vertex="1">
          <mxGeometry x="518" y="640" width="82" height="40" as="geometry" />
        </mxCell>
        <mxCell id="z5JH_8kvvvPdWUhcaSUW-24" style="edgeStyle=orthogonalEdgeStyle;rounded=0;orthogonalLoop=1;jettySize=auto;html=1;exitX=0;exitY=0.5;exitDx=0;exitDy=0;entryX=0.5;entryY=1;entryDx=0;entryDy=0;strokeWidth=3;strokeColor=#009900;" edge="1" parent="WIyWlLk6GJQsqaUBKTNV-1" source="z5JH_8kvvvPdWUhcaSUW-14" target="z5JH_8kvvvPdWUhcaSUW-20">
          <mxGeometry relative="1" as="geometry" />
        </mxCell>
        <mxCell id="z5JH_8kvvvPdWUhcaSUW-14" value="&lt;div&gt;&lt;span style=&quot;background-color: transparent; color: light-dark(rgb(0, 0, 0), rgb(255, 255, 255));&quot;&gt;&quot;tell&quot; Result&lt;/span&gt;&lt;/div&gt;&lt;div&gt;SAT /&amp;nbsp;&lt;/div&gt;&lt;div&gt;UNS&lt;/div&gt;" style="rounded=1;whiteSpace=wrap;html=1;fontSize=12;glass=0;strokeWidth=1;shadow=0;align=center;" vertex="1" parent="WIyWlLk6GJQsqaUBKTNV-1">
          <mxGeometry x="400" y="800" width="80" height="60" as="geometry" />
        </mxCell>
        <mxCell id="z5JH_8kvvvPdWUhcaSUW-20" value="" style="shape=image;verticalLabelPosition=bottom;labelBackgroundColor=default;verticalAlign=top;aspect=fixed;imageAspect=0;image=data:image/png,iVBORw0KGgoAAAANSUhEUgAAAgAAAAIACAYAAAD0eNT6AAAABHNCSVQICAgIfAhkiAAAAAlwSFlzAAAOxAAADsQBlSsOGwAAABl0RVh0U29mdHdhcmUAd3d3Lmlua3NjYXBlLm9yZ5vuPBoAACAASURBVHic7d13vB1Vuf/xzznJOemVhIQUCALSSSMUQbhKsSAqKspFRUVA5eJFpYlY8OcVsF0vNoqgiICCBRRBOoJ0JKEm9PQQSEjv5ezfH8/eZnM4Zc/es+aZ8n2/Xs/rBD3JrLVmzZo1M6uAiIiIiIiIiIiIiIiIiIiIiIiIiIiIiIiIiIiIiIiIiIiIiIiIiIiIJKfJOwEiEkkTMBQYXI4hVX8eDPQCBgC9gT7lP/cEWoD+NR5jJbAJ2AisAtYC64AVwAZgWVUsrfrzEqDUYP5EJCHqAIikQzMwEtgWGAuMKcdwYGtgm/LP4UAPpzR2ZzPwGrAIeKX859eAeVUxB1gItDmlUUTK1AEQSc5AYEdgh/LPSmwHjMKe0otgIzAfmA28CLxU/lmJlX5JEykOdQBE4jcM2B3YFdij/HN3YIRnojJkITC9HM8AM4Cngdc9EyWSN+oAiNSvCXuanwhMKv+cgG70oSwEHgemlWMq8DIadyBSF3UARGo3CtgX2K/8cyL2Wl/8LMc6BQ8DD5Z/vuKaIpGMUAdApGM9sBv824H9sZv+WNcUSa3mAA9hHYJ/Yh2Eza4pEkkhdQBETE9gPHAgcABwKDbFTrJvFdYhuB+4D+sUrHdNkUgKqAMgRfYW7EZ/KHA4MMg3OZKQNcADwB3lmIrGEUgBqQMgRTIYeDfwLuAwYLRvciQl5gK3A7eWY7lvckSSoQ6A5F3lKf9I7Cm/1Tc5knKbsc8FNwJ/xaYgiuSSOgCSRxOAjwFHATs7p0Wy7Vngz8B1wBPOaRGJlToAkhe7A0djN/5dnNMi+TQTezNwJfCYc1pEGqYOgGTZ9sD7geOwhXhEkjId+APwe+wtgUjmqAMgWbMd8EHsaf8A57SIwJbOwDXA885pERHJlQHAScAj2HQthSKt8RBwIlZnRUSkTpOBS7Dd4bwbdoUiSqzBBg4eikhK6ROApM0gbCDf57GleEWybgbwG+AytKOhpIg6AJIWk7HX/B8H+jmnRSSEddgsgkuBO7E3BSJu1AEQTwOBz2LfTHd1TotIkqZjHYFfYZ+4RBKnDoB4GIm94v9vtOGOFNtK4NfAj7BdDEVEcmk8tojKBvwHaSkUaYoN2KDBfRARyZEDsW+fbfg3tApF2uM+bO8KvaEVkUxqxVboewr/BlWhyGI8iQ2M7Y1IAOphStz6AacApwLbOKdFJA8WAD8GLgJWO6dFRORNWrGnlVfwf3JSKPIYi4CzgD6IiKRA5cY/D/8GUqEoQryKdQT0aUBEXLRg3/hfwr9BVCiKGLOxzndPREQS0IztxPc8/g2gQqGAmVhHoAciIgE0A8dg65p7N3gKheLN8QzWOdfgbqmJKorU4gDg/4C9vRMisdpU/qlXyPnyCDYL5yHvhEi6qQMgXRkLfA978ldd8bcG201ucVW8XhWV/16KLbq0GVhR/rtrsc1oAJaX//9qzdhOjGCDyyojzQdir5Z7YMs2b9VBDAOGV/133xjyKo0pAdcAX8UG6Iq8iRp16Uhf4EzgDNSYJ+kV7HvurHLMrPq5ALuJZ0EfYDQwDti+/LP6z1ofIjmrsU78D8lO/ZGEqAMg1Zqwp/3vYU//Er9l2ApvT2HfbGex5Ua/rtO/lS+9eWPHYA9gz3IMdktVvs3BOvXXYW8HRNQBkH+bjH3nP9A7ITmxCWt0pwOPYTf76eVQA9y5UcBuwO5YndwN6yD08kxUjmh8gPybOgCyDXAeNqe/2TktWVUCngUeAO4HHsdu9Os9E5UjvbAOwQRsQOrbgF1cU5RtbdgWxOdgiwqJSME0YTf9xfhPX8pabAT+BVyITbsaHrHspXEDgUOBc4HbsQGS3vUia7EUWz9AD4IiBbITcDf+DVBWYjlwA3A69vSp19Hp0wt7O3AG8Bds9oN3vclK3AnsEL3IRSRLemLf/1bh3+ikPV7CnvAPxfY7kGzpgY0hOBd7W9OGf51Kc6wpl1VL9KIWkbQbDzyKf0OT1lgF3Ii9EtUMiPzZGvvkdR326tu7vqU1Hgem1FnGIpIyfYEfYN+tvRuXtMWzwPnAQWg1vCJpAQ4GLgCew78epi02lstG2w6LZNhB2E3Ou0FJU8zCXu1ruqNU7I69/lZn4I3xEvYJTEQypB9wCfruWYmZwPexb8IiXZmCvTGbjX+9TUO0ARehFUFFMmFv9NRfAuay5Ulf05ykHpU3Ay/hX5+9YwYwqaHSFJFgmrAR/uvxbyy8Yj02yOtItDe6xKcZexV+HcW+vjZiHSJdWyIpMpZiz+t/HjgLG+ktEtIQbKbIU/jXe6+4CxjTaEGKSOM+jG0B690oJB3rsCeyQ9ErfvExGRtrsxr/6yHpWAYc23gRikg9BmDreXs3BEnHM9injqGNF6FILLYCvsSWjZ6KFJcD/RsvQhGp1T7Ya2/viz/JuA/7tq+nfUmzA7EFpYo0A2cmtgyziATUBJxGcRb1WQ9cia1iKJIlE4DfAhvwv46SiA3YWxARCaA/cC3+F3oSsQKbwqcleSXrRmIj55fgf10lEb/D1iERkZjsRDFGHS/AGsvBsZSaSHoMwMauFGGBoRnArvEUm0ixfQAbcet9UYeMF7GNWrQev+RdC/Bp4GX8r7uQsRQbsyMidWjC5rZvxv9iDhVzsKeiXjGVmUhWtGCd3jyvMtiGbSrUHFOZiRTCUOAW/C/gUPEq1rnpHVeBiWRUK7aw0Hz8r8tQcTOatitSkwnk96lgEXbj1zajIm/UC+sIvIL/dRoiZmMbLYlIJ44F1uB/scYdrwNfRaODRbrTHziHfM4aWA0cE19RieTHqeTve/8GbKnUYTGWk0gRDMG+n+dt86E2bKaPiGAj3y/C/8KMO24H9oixnESKaGfgb/hfz3HHr7CBkCKFNQAbION9McYZzwHvi7OQRIRDgafxv77jjNuBQXEWkkhWjAam4X8RxhVLsQF+mtInEkYL9qkwT+uCPAVsG2chiaTdXsBc/C++OGIztl7/1rGWkIh0ZitsqexN+F//ccQCbGtlkdw7EliF/0UXRzyKTVsUkeRNBqbi3w7EESuBI+ItHpF0OZF87OS3Bnvd3yPe4hGRiHpinwXy8FCxCTgl3uIRSYfz8L/A4og7gB1iLhsRacxOwN34tw9xxHdiLhsRN03Aj/G/qBqNpdhKZU3xFo+IxKQJ219gMf7tRaPxc7SHgGRcD+Ay/C+mRuNGbNaCiKTfSGxgrne70WhciT4zSka1ANfgfxE1Eguw7YhFJHuOIvt7C1yNtgmXjGkF/oT/xdNIXI+W8BXJumHADfi3J43EjWjnUMmIvsCt+F809cYabFSxiOTHcWR7psBd2EZJIqnVH7gT/4ul3vgXtva4iOTPLsBj+Lcz9ca9wMDYS0UkBoOBB/G/SOqJNmxlsdbYS0VE0qQnthtfVnce/Re2EqJIagwFHsf/4qgn5gD/EXuJiEiavROYh3/7U09Mw7ZLFnE3EHgY/4uinvgDupBEimor4M/4t0P1xMPYbqoibvoA/8D/YogaG7GlfEVETgI24N8uRY37gX4BykOkW63ATfhfBFFjEXBIgPIQkew6iGyuGXA7miIoCesBXId/5Y8a/wK2C1AeIpJ9o8nmQOYb0GJBkpBmbHUq70ofNS5Bo/xFpGu9sBlB3u1V1PgDWjZYAmvCbqTelT1KrANOCFEYIpJbn8QWBfNuv6LEr9FmZRLQD/Gv5FFiDrBPkJIQkbybCLyMfzsWJX4SpCSk8M7Dv3JHifvQWv4i0pityd64gO8EKQkprJPwr9RR4o/YFEURkUb1An6Hf7sWJU4JUhJSOO/F5s17V+ha40JsoKKISFyasCWEvdu3WmMT2spcGjQJWIl/Za61wp8cphhERAAbUJyVB6KV2DgGkchGA3Pxr8S1VvQjwhSDiMgbHA4sx7/dqyUWANuGKQbJq4HAE/hX3lpiPvamQkQkKXtis4y8279a4mlst1aRbrVgy0t6V9pa4nHsTYWISNLGAk/i3w7WErdibbtIly7Cv7LWEo9g2xCLiHgZDDyAf3tYS1weqAwkJ76OfyWtJf6BtsIUkXToR3bemp4dqAwk444F2vCvoN3F39DuVyKSLn2Am/FvH7uLNuCYQGUgGTUeWI1/5ewu/oItyiEikjat2KY83u1kd7EWmByoDCRjhgIv4V8pu4ur0ZaXIpJuPbBNebzby+5iFloqvfCaycZrq4vR6n4ikg1N2KY83u1md3Eb2kK40L6LfyXsLr6PtrgUkWxpIhu7p347VAFIur2f9A/6+79guRcRCe97+LejXUUb8KFguZdU2glYhn/l6youR0/+IpJtTaR/bZUVwC6hCkDSpT+2NKR3pesqrkTf/EUkH5qAy/BvV7uKJ7H1DCTHmoBr8a9sXcWf0Wh/EcmXHqS/7f1dsNxLKpyOfyXrKm5F8/xFJJ9asYXMvNvZruLUYLkXV/uR7n2s70Qr/IlIvvUB7sa/ve0sNgBTguVeXPQHnse/cnUWD5bTKCKSd/2Af+Lf7nYWL6K9VnLlCvwrVWfxODAoWM5FRNJnCOneSviycFmXJH0Y/8rUWczH9tQWESma0cBc/NvhzuJj4bIuSRgDvI5/ReooVgATwmVdRCT1JgIr8W+PO4qlwLbhsi4hNWMD67wrUUexCTgyXNZFRDLjPaR3gPY9aL+ATDob/8rTWZwcMN8iIllzIv7tcmdxRsB8SwCTgPX4V5yO4vyA+RYRyaq0bh60AdgnYL4lRv2AZ/GvNB3FdWiJXxGRjjQB1+DfTncUL6Cp2plwCf6VpaO4Dy30IyLSlT7AA/i31x3FRQHzLTF4J+nc4ncWMCxctkVEcmNrYDb+7Xb7aAPeETDf0oA+2Gsa70rSPtYCewfMt4hI3kwA1uDffreP57F7jaTMD/CvHB3F8SEzLSKSU5/Ev/3uKDSQO2XGYyM1vStG+/hFyEyLiOTcpfi34+1jIzA5ZKaldj2Bx/CvFO3jQbS1r4hII3oBD+PfnrePx4GWgPmWGqVxwZ+F2DLEIiLSmLHAa/i36+1DCwQ524n0DRTZCBwcMtMiIgXzDtK3XPAaYMeQmZbONQF34F8J2seXQmZaRKSgzsS/fW8fd2P3IklYGteOvi5ojkVEiqsJuB7/dr59aKZXwrbBtmr0PvHVMQcYEjLTIiIFtxUwD//2vjqWACNCZlre6Ar8T3p1bMZWIRQRkbAOxtpc73a/Oi4LmmP5t0mk7+SfFzTHIiJSLW07B24GpgTNsdAE/BP/k10djwGtITMtIiJv0AuYin/7Xx33owGBQR2L/0mujtXAzkFzLCIiHdkVa4O97wPV8bGgOS6wPtiuet4nuDpOCplhERHp0sn43weqYy7QN2iOC+rb+J/c6rghbHZFRKQGf8H/flAd3wyb3eIZS7pe9SwAhgXNsYiI1GI48Ar+94VKrEJLwcfqd/if1Or4YNjsiohIBB/G/75QHVeFzW5x7A+04X9CK6HV/kRE0ufP+N8fKtEGHBg2u/nXDDyK/8msxBJgZNAci4hIPUaRrhViH0bTAhtyDP4nsTo+Eza7IiLSgJPwv09Ux9Fhs5tfPYDp+J/AStyFenMiImmWtl1in8PuZRLRp/A/eZVYDewQNrsiIhKDnYA1+N83KvGJsNnNnxbgRfxPXCVOC5tdERGJ0dn43zcq8QLQM2x28+VE/E9aJaahkycikiU9sX1avO8flTg+bHbzoxcwG/8TVgI2ARPCZldERALYm/TsHDsTbRpXk1PwP1mV+HngvIqISDi/xP8+UokvBM5r5vUG5uF/okrYnH8t9ysikl1bA8vwv5+UsCXk+4TNbrZ9Bf+TVIlTA+dVRETCOx3/+4nuK93oByzE/wSVgBnYTAQREcm2Vmw+vvd9pQS8BvQPm91sOgv/k1OJ9wTOq4iIJOf9+N9XKnFG4LxmTi/s+4j3iSkBNwXOq4iIJO8W/O8vJWA+mhHwBsfjf1JKwEZg98B5FRGR5O0KbMD/PlPCVroVbO3mJ/A/ISXgx4HzKiIifn6G/32mBDyF9pYB7Hu798koAYuBIYHzKiIifrYiPVsGvytwXjPhTvxPRAn4auiMioiIu2/gf78pAbeFzmja7QW04X8iFgEDAudVRET89Qdexf++UwImBs5rql2F/wkoAV8OnVEREUmNM/G/75SAK0NnNK3GkI4RmQuAvoHzKiIi6dEHm47nff/ZAGwbOK+davY6MPAl0rHa3v8Aa7wTISIiiVkLfN87Edg98BTvRCRtIOnYoGE2tgiRiIgUS29gLv73oeXAoMB57ZDXG4DP4pThdr4DrPdOhIiIJG4d8F3vRGAPxJ/xTkSSnsG/1zUTLccoIlJkLcBL+N+PZlCQhYHejn9hl4DjQmdURERSLy1L0R8QOqNpcCX+BT0L6Bk4n5KMVmwFx7eUYyRa00HiNwCrW5V6NgS9QcyLFtIxFuCKwPl8k6RfOQzBpl70Sfi47X0FrfufRTsD7wD2BnYp//ewTn53PfA8tg/4M8A/gAfRmA/pWm9gf+BgYA+sju1E54OFF2F17DngUeBurN5JtpwO/MA5DWuA0dgA+Vw6Bf9e1lL0hJglU4CfEs+c3TXAzcCx+HdCJT36Ah8H/o5ND2u0ns0FLsQ6qpINg7DR+N73p5NDZ9RTGnb9+17wXEqjWrGZIiEHiy4HfgKMTShPkj7bYZ3LkA3/09gI7zSseSJd+yH+96dpwXPpZF/8C3c99opF0qkH8HlgDsnWiV8C2ySQP0mH0cCvSHYl0lnASfguviZdG0s6VqedEjqjHi7Dv2CvCJ1Jqdsk4CH86sYq4Cw0ODTPegKn4vuqdyqwX+iMSt3SsD/NJcFzmbABwEp8C7UNGB86oxJZT2w55s34X3glrBMyLmSGxcX2wCP4168SVtf/H/bGS9JlIv71YwW2Y2FunIR/oRZ+7+UUGgXcg3/daB9LgA8EzLck6yhs8K93vWofd6NPT2l0B/5144TguUxQGnre7wqeS4liV2wvBu960Vlsxjaskmz7Cvb2z7s+dRazsKmGkh7vwb9ePBg8lwnZEf/CfJqCLLOYEfsAi/GvF7XE+YHKQMK7AP/6U0sswq4JSYcmYDr+9WLH0BlNwjn4F+SpwXMptdoDe8XuXSeixLeDlISE9B38602UWAZMCFISUo+v4F8nvhk8lwl4Et9CXEfnq8VJssaS7BS/OEOdyOw4Gf/6Uk/MRwNQ02Ir7N7hWR9eCJ7LwHbB/6K6KngupRa9sUUuvOtDvbEZOCz2UpG4vQPYhH99qTeeRKtUpsXv8a8Pk4PnMqBz8S/Ag0NnUmqShnUgGo2FaNR2mo0AFuBfTxqNi+MuGKnLIfjXhR8Fz2VAIZdyrSWeRYP/0uBo/C+kuOKWmMtG4nMb/vUjrvhQzGUj0TUBL+JbD+aR0dUj98T/Ijo9eC6lOwOwSuxdF+KMj8VaQhKHY/GvF3HGXHK2GExGnY1/XXhb8FwG4D0Kdz0wPHgupTs/xv8Cijvmox0l02Qg+Xj13z68t6cVGIn//gCZ/AwwA99CuzZ8FqUbY7GOmHdDGiLOibGcpDHfwr8+hIgNwLYxlpPU53p868FMMvYpOw3rKR8aPJfSnZ/iXw9CxWL0ijYN+mEL6XjXh1Dx4/iKSur0XvzrQaZmA5yPb2HNIaMDJ3JkOLAG/wsnZGipYH9pWLAlZKxG65h464H/J6bzQmQs1E3SewTrddj63+Ln4+R/PnOuNuzIqM94JyCwvsAx3okouM3AH53T8EHn49csDWv/a11tf4/hXw+SiIlxFZhENgX/859EPBxXgUndDsS/HsS+N0CINwDvD/BvRjELeNQ5DUW3MzDJOxEJ+U/vBBRYUcp+H3KyMUyGPYBNZ/b03rj/wRAdgCMD/JtRXIv1lsRPkZbM1WBTP0Uq+yLlNY3agD84p+F9zsfv1iD850wW5ckzzf6E/+uypGIzGqTlYTjWKHuf/6RC05r97YtvHdiA3WNjE/cbgPcALTH/m1G8CEx1PL6YA7wTkKBmMrpSV8YdQMbmRjfo7d4JEB7BPjF7aSHmN0FxdwDeFfO/F5V6yf6GYpuyFMku3gkooF29E5CwbYDB3okouBL+nwEOj/Mfi7sD4P2d6jrn44sNACyaIubZWxHL/K3eCRD3h8xYH7Lj7ADsBoyJ8d+L6jlsL23x9RbvBDjYwTsBBVTEeqaZAP4ewz41e9mOGDuCcXYAvEd+X+98fDGxDlLJCL2aTV4R61kR85xGNzgfP7Z7bZwdgFi/TdThZufjixnonQAH2hkweUUs8yLmOY3+7nz81HUAWoCDYvq36rEceNDx+LJF3pf/7Ug/7wQUUF/vBDhQPUuH+4CVjsd/B9Azjn8org7AFHx3Rrsd2OR4fNlinXcCHKzxTkABFbGerfVOgAA2H/8ux+MPJKb1buLqAHg+/YP/KxnZwrNn7KWIefZWxDJf4Z0A+bdbnI8fyz03Dx2AEnCr4/HljYrYSBUxz96WeyfAgepZeng/dB4cxz8SRwegB74roT0JzHc8vrzRTO8EOHjZOwEFNMs7AQ5Uz9JjNjDD8fhvx+69DYmjAzAR3+kp3j0xeaPnvBPgoIh59lbEMi9intPM894zCNiz0X8kjg6A9xrV3t9i5I1eA5Z4JyJhapiT96x3AhK2GHjdOxHyBt4Pnw1/eo+jA+D5+n8Ftk+zpEvRpmQWLb9pcL93AhJWtPxmwb3AKsfj79/oPxBHB2CfGP6Net0NbHQ8vnTMc4pM0qYDC7wTUUALgOe9E5Ggu70TIG+yAesEeNmv0X+g0Q7AKGDbRhPRgPscjy2du9M7AQkqUl7Tpkhlf4d3AqRDnvegccDIRv6BRjsADb+CaJA6AOn0BMX5Ruu9O1iRFaXspwPPeCdCOuT9aaahtwCNdgD2bfDvN2I9MM3x+NK133onIAGz0BgUT/dSjKlxv/FOgHTqUexTgJeG7sGNdgA8v/8/inUCJJ2uJP/jMy7HFqISHyXyf3PcCFztnQjp1FpgquPx3d4ANAETGjl4g/T6P93mAdd4JyKgVcDF3okQfka+lwW+Ei10lnaenwEmYffiujTSAdgR3wWAvL+9SPfOB9q8ExHIz7C52eJrCXCJdyIC2Qx83zsR0i3Pe9FAYHuPAx+NvYLziDZgWPgsSgx+jV89CRWvo/qXJltjHQHvehF3/DLOQpJgtsbuSV715MPhs/hm59eZ2DhiegL5k3hshT0pezemccbnYi0hicPJ+NeLOON1YHisJSQhPY9fXfmfehPdyCeAiQ383UZp5HV2vA6c452IGD2MnszS6BJsYHBenAUs8k6E1MxzTJrLvXghfj2ezySQP4lPE3AD/k9VjcYyYIeYy0bisxO2TbB3PWk0/hR3wUhwJ+BXXxIfJDospoTXG56zD6Q+g7E5296NayNxbOylInH7KP71pJGYDQyNvVQktMn41ptE68zBgTJRS2wEeoXPogQwHnuK9m5k64nvBCgPCeM8/OtLPbGUGLZ4FRe9gU341Z0Dw2dxC88BN08lkD8J52Bs8QzvxjZK/IYG5tpK4pqAy/CvN1FiLTFs7yquZuBXf06qJ8H1DgLctc6/F4enHY8tjbsH+AjW4GXBVcDx2EUm2VACPk92VtBbg10TnjvLSeOedDz27kke7C78ejpfTSB/Et6+2Chn7yevruJC4tkyW3w0YQvpeNejrmIJCb++lWC+jl89uj2B/P2b5wyAIxLInyRjV2yXM+9GuH2swz5zST6cgp1T73rVPp4GdgmYb0nW+/GrSwsSyB9gSw96XjRjw2dREtQHuBT/xrgSs/Dd5VLCmAS8iH/9qsSVQL+gOZakjcO3Tg0InkPsQvLK4FI0GCuvjgRm4le3NmKv/BO5iMRFX+BcbBdRr3o2F1tGXfKnCbtHedWt8eGz6LsHwD0J5E/89MWm260g2Xp1MwkPohFXewK3kmwdW451PvqEz544ug+/+2MiewKc7ZS5ErYDm+TfUOBbhN1DYBNwPbB3QnmS9JmCrVC5mXD1bBHwTWwhLMm/X+B3fzwrgfxxuVPmSsAXEsifpEcrcBR2o45r7YAngDOA0QnmQ9JtNHAmNo0rjjq2FlvO94NYHZbiOAW/++OlCeSPe5wyVwLenUD+JJ36AIcA3wVuwwbrdbcF51Js857LgE8Ao5JOtGTOaOCT2IPOw3S/cmUbVhdvxXZleye2KpwU0xH43R/viprYegbUzcRGO3rYFXjW6diSPn2AbYAhQH+gBfvWugqbX/2qX9IkR0Zgn6X6A4OwAaOrsA7mK2RnUSsJb3f8Fqt7mYiblUXtAPTAKntLxL8XhxI2SGydw7FFRES60w9Yic9stQ3YQ1FbrX8h6ipnI/G5+YMtPqSbv4iIpNVqbOCnh1Zg6yh/IWoHwHMRnpmOxxYREanFLMdjbxvll6N2ACL94zGb5XhsERGRWng+rEZ6SI/aARgT8ffjNMvx2CIiIrXIbQfAcxqVPgGIiEjazXI8dqR7dNQOwIiIvx8ndQBERCTtPO9VQQcBenYAZjkeW0REpBazHI8d6R4dtQMQqXcRs8T2OxYREanTfMdjB30DMDLi78dlNVptS0RE0s/zfhXsDUAPYFi0tMRmsdNxRUREonrd6bhbE2EVwigdgMFYJ8DDEqfjioiIROXVAWgBBtb6y1E6AEOipyU2XksrioiIROX51rrme3VWOgBevSkREZGoPO9Zg2v9xaifALxoDICIiGRF7t4AeHYA9AZARESyQm8AYqQOgIiIZEXuOgA1jywMQB0AERHJCs9PAEE6AH3rSEhcNAZARESywvOeVfO9OisdgFWOxxYREYliteOx+9T6i1E6ADX/owGsdzy2iIhIFJ73rCAdAM83ABscjy0iIhKFZwcgd58A9AZARESywvOhNUgHwPMTwEbHY4uIiESRuzcArXUkJC56AyAiIlnh+QagpdZfjLodsBd1AEREJCs871k1CbvifQAAIABJREFU36uz0gHQIEAREckKdQBipDcAIiKSFZ4PrT1r/cUsdABKaBCgiIhkxwbs3uUhyBuAKL8bJ73+FxGRLPF8cA3SARAREZGciNIB2BwsFV3znH4oIiISVRMRpuPFrOZ7dRY6AJ4FKSIiElUrdu/ykKsOAEAvx2OLiIhE4fnmelOtv5iVDoA+A4iISFZ4PrTqDYCIiIiT3HUAPOfiqwMgIiJZ4fnWuuZ7dZQOwNo6EhIXfQIQEZGs8HxoXVPrL0bpANT8jwagDoCIiGSF5z1LHQAREREnegMQI40BEBGRrMhdB8BzDMAAx2OLiIhE0d/x2Otq/cUoHYDVdSQkLls5HltERCQKz3tWzffqKB2AFXUkJC7DHI8tIiISxXDHYy+r9RejdABq/kcD0BsAERHJCs97VpAOwNI6EhIXdQBERCQrPO9ZNd+rs/IGQJ8AREQkKzzvWfoEICIi4kRvAGKkNwAiIpIVnh2A5bX+YtQxADXvMxwzvQEQEZGs8Hpo3UCEGXtROgBtwOLIyYmH3gCIiEhWeD20vgaUav3lKB0AgFcj/n5c+gJ9nI4tIiJSq35Ab6djvxbll7PSAQAY5XhsERGRWox2PHake3SWOgDbOx5bRESkFp73qtx2AMY5HltERKQW4xyPHbQDsCDi78dJbwBERCTtxjkee2GUX47aAZgb8ffjNM7x2CIiIrXwfFidE+WXs9QB0BsAERFJO3UAAhjneGwREZFaeHYAIt2jmyL+483AWqA14t+LQwnoD6xxOLaIiEh3+gGrnI69Hlsvp+aFgHpGPEAbNhBwXMS/F4cmYFvgWYdjF8EQrOc6FFtKcjMwG7/VH0WkcS3YvPRm7MFtNdaGb/ZMVI6Nczz2PCLc/CF6BwDspjCujr8Xh+1RByBO+wDHAu8G3krHb4SeAx4AfgfcQcQKJiKJGw/8J/A2YG/evIrqOmAqcAtwLfB8oqnLN8/X/7OTOMhl2E3AI05OIH9F8Hbgn0Qv/6eBTxP905GIhHcEcDfRruk24Eas0yCN+yJ+98dLE8gfZztlrgT8LIH85dkA4Nc0fh5uxXe5SxHZYihwDY1d05uAHwG9Ek573lyE3/3xzATyx9FOmSsB9yaQv7waBzxDfOfideCQJDMgIm8yEZhPfNf1/cCgRHOQL/fjd3/8UAL5Y6JT5krAUvT6uR7bYfND4z4f64DDE8yHiGwxHhukG/d1/Sj2VkGiaQKW43d/TOQzzgCnzFVi2/BZzJVewBOEOx/Lgd0Sy42IgA3aXUS46/oB6hskXmTb43dfbMOmySfilQQy1Fm8L4H85ckPCX9OHsdnbQiRImoFHiP8df3NpDKUEx/A7744v54ER10JsGJ6nX8vDns5Hjtr3gZ8OYHjjMdGv4pIeKcAkxI4zteBCQkcJy/2dDx2XffkLHYAPAs5a75K/ec4qm8AIxI6lkhRjSC5J/MWrA2R2njem55J8mBfwO9VR6IZzbCdsNW+kjw3lyeSM5Hi+jXJXtOb0EZstXoWv/viSQnk798OCpSJWmIj0Dt8FjPvf0j+3GzGVhcUkfjthw32Svq61liA7vXBOkte98UDw2dxi2GBMlFrTAyfxcz7Bz7nZir26lBE4tNK2Nk8XcVtCeQv6ybje08cUk+i6/0+vBhYWOffjYM6AF1rBaY4HXsi8DWnY4vk1TfwGwC9H9DD6dhZ4XlPmo+tkRNZIwPEHm/g7zbqAMdjZ8EYoK/j8c9BnTSRuEzGdzDeAGCU4/GzwPOeVPe9uJEOwLQG/m6j1AHoWvvdv5LWgu0yNsA5HSJZ1x+4Cv9FebzblLRL9Bt8O1Pr/YtZ7QC8FRjuePy0S8PFuhMJ7U4lkmMXAbt4JwINvO7KCGBHx+MX7g1AE7C/4/HTbq13AsqOwbYPFpHojgc+4Z2Isg3eCUgx7zfSLp/jm4Bl+I16/F74LGbWQHymC3UUq9DqjSJRTQBW43/9lrDpvZ5jitIuieXWO4uGNshr5A1ACY0DSKsVwPPeiSjrB/wF2No7ISIZMRL4K+m56c4A1ngnIsU8v/9Pw+7FdWl0mdiHG/z7jdgb2+lOOnaHdwKqjAP+jM6XSHd6A9cDY70TUuVO7wSkWF98Zzw1dA/OcgegF9YJkI5d552Adg5AgwJFutIEXIbNu0+TP3gnIMWm4LsT6kOOx2YbfL9NnRk+i5n2OP7fD9vHOUFzLJJd38L/+mwfnuu9ZMHX8D0/I8NnsWuz8cv8XxLIX5Z57k/dWbQBnw+ZaZEM+iL+12ZH8YGQmc6Bm/E7Ny8nkL9uXYtfAazA9/VLFtyOfyPSPtqAz4TMtEiGfILkd+6sJe4Kmekc6AWsxO/8XB0+i937Er6V9D+C5zDbJpLOxmUD8P6A+RbJgg9iO5x6X4/tYxMwPmC+8+AwfM/RF8NnsXveuyBpPYDuXY5/g9JRrAXeGTDfIml2KLAO/+uwo/hlwHznxf/ie44mhM9i93pgixF4FcKT4bOYeVsBr+LfqHQUq4F3h8u6SCq9F5tb7339dRSL0FLrtZiB3zlaQuOz+GJzE74VNk1zZtPq4/g3LJ3FeuDocFkXSZUPkt4n/xLwsXBZz41x+J6jVA2APwvfwvhs+Czmwl/xb1w6i03ACeGyLpIKx5HOb/6VuClc1nPlC/iep9PCZ7F2++FbGH8Kn8Vc2Bbf/Ru6izZsUKlIHp1Gevbo6CiWAmOC5T5f/oLvuZoSPou1a8F3OsSychqke8fi39B0F9+mgQ0uRFKmCfgu/tdVd3FMqALIGe/pf8uBnsFzGdGN+Fbeg8JnMTeuwr+x6S6uJT2boYjUqx/wR/yvp+7iikD5z6ND8D1X14fPYnT/jW+hXBA+i7kxCFtFyrvR6S6mYp8tRLJoHOlcjrt9vIRtIS618dz+twScHD6L0e2Kb6E8Fz6LuXIANvDOu/HpLhahxZ4kew4AFuJ//XQXG4H9A5VBXr2I7znbMXwW6zMH34JJxcIIGfJV/BugWmI9cGKgMhCJ2+ewlS69r5ta4oxAZZBXU/A9X6lY/78z3ivOnR8+i7nShG316d0I1Rq/wAbgiKRRb+Ai/K+TWuNaNNg2qh/ge84uCZ/F+n0U38J5CVXoqPoDT+PfGNUa04Cdg5SESP12BZ7A//qoNZ7EBihK7Zrw3f22BBwVPJcNGIT/q69UzY/MiJ3wXc45aqwCPh2iIETqcAK2pLX3dVFrLAF2CFIS+bY/vudtHfbAlmp34ltIPwifxVw6nGwMCqyOvwGjQhSGSA1GYFOyvK+DKLEZ24dAorsQ33N3S/gsNs57e+BZ6DNAvc7Gv4GKGq8BHwlRGCJd+BiwGP/6HzU06K8+zcA8fM9dKrb/7c6O+FdyTWup3y/wP3/1xO+BkQHKQ6TaKLKxsE9H8ZMA5VEUB+F//rYPnsuYeG6TWAJ+HD6LudVMdhu4ZcCp2BbVInFqBk7ClmH1ruf1xA3oumjEz/E9f0+Fz2J8vNe9nkeK9krOoD7AP/FvtOqNh4CJsZeKFNXewKP41+t64x/YFEWpTw/8F3X6bvBcxmg8/pX+8OC5zLdBZGtaU/vYDFwJbBN3wUhhjMLmXWdtcGx1PA0MibtgCuYI/M9j5h5ovD8D/CF8FnNvW/wHvjQaK4GvYW81RGrRB/gGNt3Uu/42EnPQ9r5xuAHf85jq1f868218C209Nk1HGrMHth6/d2PWaMzFlmjVttHSmVZso5X5+NfXRuM1YLd4i6eQRmH7JXiey0xObd8F/4vgzOC5LIbxZHPKU0cxGxvMlbr9tMVNM3A0/pu8xBVLgEmxllBxfQ3/87lv8FwG8hS+Bfc8WhMgLpPJ1mqB3cWzwPHYU58UU2/srVBebvwl4HW0KVpcmrHl5T3P5xwyfA/7Bv4XxDuC57I49sGeLrzPaZwxHzgd7YdeJIOAs4BX8K9/ccZi9OQfp0PxP6eZfP1fsTP+BXhN8FwWywTgVfzPa9yxFPg+8Jb4ikpSZifgR2R3Ln9X8QqwZ3xFJdhuid7nNfMdumn4FuA6YHjwXBbLztigOu+LI0RsBm7HvglrnED2NWNPcteR7el8XcUc4K1xFZgAsBV27/A8rzOC5zIBaVhf/kvBc1k8byFf3047ipexz1jj4ikySdBbgG9he4N416OQ8TyqnyGchv+5/UbwXCZgB/wL8hkyPJAixUaQ7RXSao024B5s0KDGCqTXIOCzwL3YOfOuN6HjYfR2M4Qm/NexaSNHWzY/hP/F8u7guSym/sDf8T+/ScUabJGp/0SdgTQYBByL7V+xBv/6kVT8DegXQ/nJm70X//N7f/BcJugE/Av09uC5LK4W4Nf4n+OkYx1wE1a/9SSWnBHAiVjHcz3+9SDp+CUanxLSXfif4+OD5zJB/YEV+Bdq5tZTzphTsUF03ufZK54BLsAGnfVqsCxli57YOhTnAv+iuHWsrVwGEs5k/M/zCuyemSuX4l+wvw2eSzmSdHT2vGMl8Ffgy9hKXlqCuHatwP7AV7BX3Vlfkz+OWI5tSiNhXYP/ub44eC4dTMG/YDcAY0NnVNgDG0Hvfb7TFGuwgYTnAe8Dtq67dPNnJNZxPB8bwFekb/m1xMvYNSVhbYf/uv8l7C1ELj2Of+FmemWlDNmKYg0OrCcWlMvofOBj2P4ZPeop7IzoAewKHIN9KrmF/K3GF3fcjF1LEt7/4n++HwueyypJT437L+BnCR+zveXYNrcrnNNRBM3A17H52M3OacmK9cBM4AVsnYXqmF/+/9OsF7aD2o7YynuVnzsB26O9F2q1Gfvefx727V/CGowtqDTAOR0nAxcldbCkOwCDsUasb8LHbe90bElQScbhwNXAMO+E5MAiYCEwD1uSeW7551Ksc1uJZeWfjXZ0B2JT7SoxuPxzCDYaf0z559jyT33aaNxr2NTGO70TUiBnYW+lPK3BOs/Lkzqgx+I4VwCfcjhutbnYIgsbndNRJGOAK9HmTB42AKur/ntpJ783pOrP/dDTuoc7sfZxvndCCqQVG2cx2jkdVwCfcU5DcAfg/52lBHw6cD7lzZqxnvYG/M+/QpGmWI+9mdSnsuSlYZ2aEvC20BlNi6fxL+xZ6AnHy2TgWfzrgEKRhphBDnZ9y6jK0793HZgeOqMd8eptXuZ03GrbUYDXLSn1GNYJ+DlW+UWKqA34KXYtTHVOS1GdiA1O9XaJdwKSNAD7Dund65oP9AmcV+naAfhvvKFQJB0vovEw3nqTjm3Nl+O0r4jXG4CV2MqA3kZh33/Ez/3YEs3fw6Y+ieTZJuAnwHjgbue0FN3J2OBkb7+ggNPSx5COwWAL8J+WKGYK9irUu04oFCHiX+R4lbeM6YdNn/WuE+vxn33g5kr8T0AJG30r6dAMHIfNd/euFwpFHLEE2ygrz6s8Zs3Z+NeLEraLamHtiQ2E8T4Ji/BfAUreaChwIcXd+U2R/WjDHnK0OFK6DARex79+lLBPQYV2G/4noQScEzqjUpf9gAfxrx8KRZR4ANgHSaNv4V8/StheGIX3LvxPRAl7TTc0cF6lPk3Ah4Hn8K8nCkVX8SzwISSthmHLZHvXkxJwWOC8ZsY0/E9GCRudK+nVApyEdpBTpC8WYatcanGxdLsY/7pSAp7AZyn+VPoU/iekhO0NsFvgvErj+gPfxN7aeNcZRbFjMfb5sB+Sdnth0zC960wJ+GTgvGZKC7YVo/dJKQF3BM6rxKc/NrpabwQUSccibLveQUhWpGW82Tz0puhNTsf/xFTiyMB5lXj1B84gHfN6FfmOhcBp6Ik/a47Cv+5U4iuB85pJ/bCLy/vklLDBZuqhZU9f4L/QYEFF/PEs8AW0dHgW9QJewr8OldDCc136Ev4nqBKnBc6rhNMMHArcSDrWmVBkN+4DjkaL+GRZWhb9KQFfDJzXTOuNfR/xPkklbKqIFvDIvr2Ay4G1+NcpRTZiDfBLYA8k60Zi6+x716kSNs6tV9jsZt8X8D9RlSjUFo05NwibQvgY/vVKkc54BpvKNwzJi1/jX68qcVLgvOZCKzAT/5NVwqaMaPOO/NkbuIj0LAii8Itl2G5sus7zZ1/Ss5T4y9hsN6nB8fifsEpMBXqGza446YvNx/0btiuXd11TJBPry+f8E2hAVl61AE/iX9cq8emguc2ZHtioW++TVomzwmZXUmAwtgvhjaRjm2pFvLEJG9B3KjAcybuv41/nKvE8eoiM7BP4n7hKrAF2CptdSZFh2Pe6W9DgwSzHWuDvwInAVkhR7EK6rttjw2Y3n3oA0/E/eZX4B1q7uYj6YFMKLwRm4V8PFV3HQmwL3qPRFt9F1Azci389rMTT5TRJHT6K/wmsjhPCZlcyYE/gTOBOYDX+dbLosRpbvvtMNG1P4PP418nq+EjY7OZbE/Aw/iexEkuBbYLmWLKkBXgb8FXgJmA5/nU077EMG8B3FrA/GlktW4wmXTN7HkRvjRu2P+laze1PYbMrGdYDmIQNNLsK+4SVlt3HshibsLn5vy2X6SS0Ip907gb862wl2rBpiBKDq/A/odVxVNjsSo70x+aYH4eNI7gPWId/HU5bVG72V2I3+wPRhjtSu6Pxr8PVcUXQ3MYkK68nxmDTAtPSICzElphd5J0QyaRWYEdgZ+Ct5di5HHlfhW4RtlnT81XxHPAiNv1SJKqtsTn/I7wTUrYKu5YXeCekO1npAAB8A/h/3omo8lfgg1hvTyQuQ7Epp6Oxju8YYBSwLTb+ZAy2Z0YarcP28liArXv+Svm/K/ECNo5GJC5N2NodR3gnpMrXge96J6IWWeoA9AFmANt5J6TKF4CLvRMhhTOsHIOBIeWf7WMI1lGobF/bgn2OAPuOPrDdv7kCWzYV7AlmY/nPa7Eb+1JsgFV1VP9vi8shkqRTgJ96J6LKLGBX7JqRmH0M/2871bEWTT0SEfGwG7ZIm/d9oDo+HDTHwj34n+TqmIp90xURkWT0Ah7Hv/2vjn+SrbfqmTSR9OzwVInvBc2xiIhU+zH+7X51bEY7SibmMvxPePuTf0jQHIuICMBhpGttmBIaC5aoEcAS/E96dczDRnCLiEgYw7FZJt7tfXUsxqYiSoKOx//Et48/o29AIiIhNGHTr73b+fbxqZCZlo41Abfjf/LbxxkhMy0iUlDn4N++t4+70EOfm+2xOcvelaA6NgGHh8y0iEjBHEL69tVYDewQMtPSvTPxrwjtYzHWORERkcZsiy0h7d2ut4+vhMy01KYn8C/8K0P7mMqWVdhERCS63sCj+Lfn7WMadu+RFBiPbSTiXSnax6UhMy0iknOX49+Ot4+N2Ho0kiIX4F8xOooTQmZaRCSnPo9/+91RZGKjn6LphW0W5F052sc6YErAfIuI5M2+WNvp3X63j+fRp93UegfpWyGqBMxGC0WIiNRiBDAX/3a7fbQBBwfMt8TgIvwrSkfxIOo5ioh0pS/wMP7tdUfx84D5lpj0JZ2fAkrAH4HmcFkXEcmsZuBP+LfTHcV07N4iGTAJWI9/pekofhAw3yIiWZW2Hf4qsQ6YEDDfEsBZ+FeczuKUgPkWEcmaz+HfLncWpwXMtwTSDNyBf+XpKDYBHwiXdRGRzDiC9C3zW4nb0GfbzBqNLcvrXYk6itXAPuGyLiKSepNJ334ulVgCjA2XdUnCUfhXpM5iAbbOtYhI0YwB5uHfDncWR4fLuiQpjctJVuJJYEi4rIuIpM5Q4Bn829/OQsu450g/4Dn8K1Vn8RAwIFjuRUTSYyDwCP7tbmfxAtA/WO7FxT6kc8OgStyNFgoSkXzrC9yLf3vbWazHxiVIDn0J/wrWVdyG7WkgIpI3rcBN+LezXcV/Bcu9pMJv8K9kXcX1aJ9pEcmXHsB1+LevXcXVwXIvqdEHmIp/ZesqfovmnopIPjRjN1fvdrWreAIt9VsY40jv+gCV+BXQFCj/IiJJaAIuxr897SqWADuEKgBJp/cBm/GvfF3FhcFyLyIS3vfxb0e7is3Ae4PlXlLt2/hXwO7iZ+hNgIhkSxPwI/zbz+7im6EKQNKvmfSPSi1hi1JoTICIZEEz8Ev8283u4kbUrhbeEOBF/Ctjd3EN0BKoDERE4tADuAL/9rK7mAlsFaYIJGv2wjbn8a6U3cVfgd6BykBEpBGtwJ/wbye7izXAxEBlIBl1DNCGf+XsLm5GKwaKSLr0BW7Fv33sLtqAjwYqA8m4r+FfQWuJe7H1tEVEvPUH7sS/XawlzgpUBpITv8C/ktYSj6JvWCLiawjwIP7tYS1xWaAykBxpIRuvskrYVsJjwxSDiEiXtiPdW/pWx9/REutSowHA4/hX2lpiAdq9SkSSNR6Yi3/7V0s8DQwKUwySV6OAOfhX3lpiFXBkmGIQEXmDdwMr8G/3aon56C2p1GkisBL/SlxLbAJOCVMMIiIAnARsxL+9qyVWABPCFIMUxXvIToUvYfsHaHUrEYlTE3Au/u1blAcivRWVWJyIf4WOEn9GW1uKSDx6A9fi365FiZODlIQU1nfwr9RR4kFgeJCSEJGiGAE8jH97FiXODVEQImnf2rJ9zAX2C1ISIpJ3k4FZ+LdjUUJbqEswTcDF+FfyKLEOODVEYYhIbh2HrZnv3X5FiV+hrdMlsGbgKvwre9S4Eu0hICJd60U2tvJtH79Fg58lIT2A6/Cv9FHjMWBc/MUhIjkwlux97y8B16NV/iRhrcBN+Ff+qLEYOCxAeYhIdv0H8Cr+7VPUuA17ayGSuD7A3fhfBFFjEzZSVt/LRIqtCdshbxP+7VLUuA/oF3+RiNRuANl8bVbCXp1pR0GRYhoO/BX/dqieeAhre0XcDQWm4X9R1BPzgEPjLxIRSbF3YRuJebc/9cQ0bBtikdQYDDyA/8VRT7Rh82f1LU0k33oBFwCb8W936olH0VtLSal+wB34XyT1xtPAXrGXioikwa5k901lCbgHGBh7qYjEqC/wd/wvlnpjLbZwkAYIiuRDE7aL32r825d642a0jolkRCvwR/wvmkbiFmCbuAtGRBKV5YF+lfgrtiGRSGb0BK7G/+JpJF4BPhR3wYhIIj4CLMS/HWkkfosW+ZGMagJ+iv9F1GjcCIyJuWxEJIxtyP4byBJwCVreVzKuCfgR/hdTo7EMGxugC1IknZqwTXxex7+9aDR+hsYhSY58B/+LKo74B7BTvEUjIg3aBbgX//Yhjjg33qIRSYcTgA34X2CNxlrsIm2NtXREJKqe2FK+a/FvFxqNTcDJ8RaPSLq8F1iJ/8UWR0wD9o63eESkRvsCT+LfDsQRK4B3x1s8Ium0JzAH/4sujtgMXAmMjLWERKQz22AD5LK4gU9HMR+YFGsJiaTcKGAq/hdfXLEK+yyg5YRFwmjBBuIux/96jyueBLaNs5BEsqI/8Df8L8I44wXg6DgLSUQ4EngR/+s7zrgNGBRnIYlkTQ/gF/hfjHHHnWhfAZFG7UK2lxbvLC7H3miICPZqL6s7dHUWlfEBW8dYTiJFMBTboXMj/tdxnNGGpvmJdOgYYA3+F2ncsRT4OjAgvqISyaWBwLewhbe8r9u4YzXw0fiKSiR/xpO/b32VWIz1/rWlp8gb9cPeAr6K/3UaIl5AnwRFajIQuB7/izZULMIWL9H2nlJ0rdhWvQvwvy5DxU3AkLgKTKQImrCbZN7GBVTHXOypR1t9StG0YDf+efhfh6GiDbgA7R8iUrf3Yd/QvS/mkDETOB6NCpb8a8WWBJ+N/3UXMpZgq56KSIN2BJ7A/6IOHa9gYwT0ulDyZgD2tisvK4B2FY8DO8RTbCIC9pr81/hf3EnECmwKlFYIk6zbBuvU5v0tXiWuBvrGUXAi8manko8dBWuJDcBVwMRYSk4kOZOBa8jfPP7OYj1wSiwlJyJd2ht4Dv+LPsm4D1sOtSmG8hMJ5UDgRvyvlyTjWazDIyIJ6Q9chv/Fn3RMB74MDGu8CEViMRw4DZiB//WRdFyKrWEgIg6OwhbY8W4Iko71wHXAoeitgCSvGXvav4R8rt7ZXSzFVi4VEWcjgJvxbxS8Yg4231iDBiW0kdj6HHldrbOWuAMY3WhBikh8moEzsSdj7wbCKzYAfwbegxYfkfj0AI4AbqA4g/o6inXYpw69cRNJqT2AJ/FvLLxjMbYT4aGoMyDRVV7xX0i+l+mtNWag2TgimdAXuAhbitO74UhDzAX+F9gPPb1I55qA/YH/I99L9EaJNuDnaN8Okcx5O8UcmdxVzMGe6g5EnQExu2OL9byAf/1MU7wIHFJ/sYqItz7YALkif7vsqoH7PvBObI12KYZe2I3tB8BL+NfDtMUG4Dy0SZdIbuwFPIJ/45LWWA3cjq20uF2dZSzpNQ7bfe86YBn+9S2tMQ1baExEcqYndoNbiX9Dk/Z4CZvjfST2xCjZ0hP7zHMB8C/861PaYw02vbFHPYUtItmxA3An/o1OVmIV8DfgbOAgNCAqjfoABwPnYGtirMK/3mQlbgPeEr3IRSTLjqaYqwg2Ghuxp8oLgeOAsVELXhq2NfZ25gJsn4h1+NeLrMVS7LOIBsOKFNQIbE+Bzfg3SFmO57Dtmk/ANkbRAKr49MHK9ASsjJ/H/3xnOTZhn7eGRzkJkj/q+UnFRGz+80HeCcmJzcBsbPOix4Bnyn+egc2tlo6NAnbDpuZNLv95TzRLIy73AF8CHvdOiPhTB0CqNQEfxabGaV39MFYAT5XjGWAWMLMca/ySlai+wPZVsTt2k98DGOiYrjybBZwB/NE5HZIi6gBIR/oAp2OjgrXVZ3JeZUuHYFa7P8/HpipmQT9ss5jtsel346r+vD32/V6SsQobJ/EjbJyEyL+pAyBdGYM1HseiupIG67BBm6+XY1H5Z/X/9jo2zbPS2C8t/1zPljcMK7BPFNV6sOXpuy829bEJGFz+33oDA4CtgGHln5UY3u5/1/gHfyXgKuCr2F4GIm+iRl1qUVkffR/vhEisNpV/9nRNhcTtIew7/8PeCRGRfKiMD5iO/yjJbISqAAADhklEQVRmhULx5nga+DB6sBORQJqx9QOew7/BUygU8DI2n1+r+IlIIiodgRfxbwAViiLGLOzGr084IuKiBWuEtH+6QpFMzMX29NAeFSKSCq1YR2AB/g2kQpHHeA2bmqtZFhILDRaRuPUDTsZGIY9yTotIHswDfgxcTHEWixKRDGvBxgg8gv+Tk0KRxXgCe6umJ34RyawDgRuxNfC9G1WFIu1xH7bTod7Qikhu7IXtQrYW/0ZWoUhTbACuA6YgkhD1MMXDSODzwH8DQ5zTIuJpJbbF8Q+x0f0iiVEHQDwNBI7HvnPu6pwWkSQ9A1yK3fxXOqdFCkodAEmLyVhH4ONoB0LJp3XYWJhLgTuxV/8ibtQBkLQZCBwDfA6Y5JwWkThMB64EfgkscU6LyL+pAyBpNhk4DvgkGisg2bIC+D3wW2xUv4iI1KE/cALwIP6jtRWKruJ+bFyLPmNJ6ukNgGTNdtgngs8AOzunRQRgBjaF72rgBee0iNRMHQDJsr2BY4GPAqOd0yLFMg+4FrvpT3NOi0hd1AGQvNgdW3r4WGAn57RIPs0G/gL8AXvVX/JNjkhj1AGQPNob+DDwAbS+gDRmOnAD8CdgqnNaRGKlDoDk3fbAYdja6oehPdSla5uAh7H5+n8BnvVNjkg46gBIkQwADgfehXUGxrmmRtJiJnA7cEv55yrf5IgkQx0AKbK3AIeW4zBgsG9yJCGrsSmld5TjMd/kiPhQB0DE9AAmYFsXHwAcAgx1TZHEZSX2Wv8ObPDeI9jueyKFpg6ASMease2LDwL2L8d2rimSWs3CnvAfAu4BngLaPBMkkkbqAIjUbiSwXzn2BSYCg1xTJMux0fkPYzf8h4BXXVMkkhHqAIjUrwmbZTAJ+3wwsfxzlGeicmw+8Hg5ppXjZdcUiWSYOgAi8RuCLUy0W9XP3VDHoFYLsPn3z7T7udQzUSJ5ow6ASHL6AzsAO5aj8uftgDFAq1/SErUeW0p3NvAS8GI5Kn9e7Zc0keJQB0AkHZqwMQZjq2I0sDUwvPz/Vf6c1o7CBmAR8BqwsPxzEfbqfm5VLETL6Iq4UwdAJHsGYZ8ZBlf9rPy5pepnf6AP0Lv89wYAPbv5tzdh0+YA1gFrsYVxNmKv4Cs/l1X9rPx5ecM5ExERERERERERERERERERERERERERERERERERERERERERERERERERERHJpf8PdNfMPnJrfIoAAAAASUVORK5CYII=;" vertex="1" parent="WIyWlLk6GJQsqaUBKTNV-1">
          <mxGeometry x="80.08" y="710" width="40" height="40" as="geometry" />
        </mxCell>
        <mxCell id="z5JH_8kvvvPdWUhcaSUW-22" value="" style="shape=image;verticalLabelPosition=bottom;labelBackgroundColor=default;verticalAlign=top;aspect=fixed;imageAspect=0;image=data:image/png,iVBORw0KGgoAAAANSUhEUgAAAgAAAAIACAQAAABecRxxAAAACXBIWXMAAA7EAAAOxAGVKw4bAAA13klEQVR4nOzdaWwUdRzG8W8XKJctIoqWWI0UDYQXLV1KGiHwZqPxBYlGq8gLEk1p5IVpSWoaNSZ9g4BHQgPGNKFp0kgT94VH+kJig4pW44F4hUOSCkUFjQflKFJaqr9tYjDQlW233d/s7PN5XjXdnZ39z/+amZ0ZEBERERERERERERERERERERERERGRoMljDiVEifEQ1dTzLFvYRjPtxHmTzhHyhv1nl71im73yGXtHtb0zZksosSXleX8dEUkmwjwqqWIjL9PGbr7hJIP8PY4Z5IQtdbct/SXqrGOotE+MeH9tkVxVSLk1+KdpYS/HuDiujT3VXOQoH7DT1qKKJRR4F4lIuN3IKp5gB3v4xaXBXysnbc222xqusl0GERkHeSyw8XWzTb6D2eiTdwbv8LyteYmOHoiM3jweYKtNsE+7N+V002vfYiv3U+RdpCJBN4mlbCTOcfdmOxHp4XXqiNq3FJH/mGzNotYa/p/ujTQTOUsnjcSY6l3sIt7mU2MNv9e9UXqkzzqCBuv6dJRAcs71rKGVn9wbYRBynBYeZpb3JhHJhMSY30G/e7MLWgbpsvnAIu/NIzJRytjMYfeGFvQcYhOl3ptKZDwtptEqtnfTyqb8QBNR780mkq47qOVL9+aUrTlgHedC700oMha3W9Pvcm9CYUiiG7jLe3OKpKqAGj53bzZhy6es1wVHEnRRmjnr3ljCmvPEiXlvYpGRzLJxf797E8mFHKRB1xtKkCTG/XPuDSOX8tfwXEC/IRRnhWy0Ecm7OeRqDlCr4wLi5RYac+TynSDnDE3c5l0VJNeU0uZ0Iy7l6ly0HYJl3lVCcsUKOhhyr/TKlelitY4KyETKZx3fuVd0JXm+pYZp3tVEwmgmDZxwr+DKtfMz9ba1RMZNvo0rJ90rtpJ6frPuerp3tZEwSDR+3bgjG/OrdQLaHZA0TLF9/m73iqyMPT3WfU/2rkaSjSJUccS9Aivp56h1AroTsYxChDW6gUeocsC6c50ilJQs5wv3CpupDFi81yFT+YxK76olQVdMeyh+5NPHcfbzrn2b7TTyJI9yDxVEKWO+pYjZlstP940M/100/L8ye9Uy7mWtvavR3t1uS/nKltbn/p3SzxCvcatj7ZJAm2EVPlur+Qk+ZhebqCZGyQSdAJvOAlv6evuUXXyStb+JOMdzOkEoV8qzMTK7Hsh1ir3sYAP3sdDpZNc0Ftmnb+AVPrS18S6P0aSHR3REQC6L8pF7pUwlA3TTYfOUKhYHrgLPs9lBLW3s44J7OaUSHRGQYUW0csm9Ov5fhjjITh5jSZY8TW8q5TxOS+DPo1yyUr3Zu7DEUx7r+N29IibLgI2mTTba3+RdTGNWaLOCRjo5716WyXKKmsDNpSRD7uR99wo4Uk7zFvXcnSXjfSqmspyneJsz7mU7UvZQ4l1AkmmTbX81eHfx67YRP0a+d+FMmElEbUawL3AnWs/bWk3xLhzJnNKA/dTnHB02FS32LpaMmWu7XvGAnTn4mgrvYpFMmMGLAfr122E2szJHL1eZwiq28L37Nvg3A7Y2+oVAyK0MzPN5j9l0f4V3cQRC4tGpQekGuvXgkfCaSXMg9j6P8oKefHuVCpuZ9bhvm8RJ11dtliihszQAY/+Pw6O+Tjsll5gN+N+B4RDl3gUh4ymPWvpdq1Q/cVbrqvSURGwaHnfeXgPWEWlrhUSx8/n+IzQw17sQss5sapzvwPyerhwMgwf5w60KXdAT7NKUeOqi3xWavaz1LgBJRwGtbpUn8dy6G7wLIBTmUOf4/MUWrvMugIn0DwAAAP//7N3fa5ZlGAfw77O5jeW7uR8SwbKORIXKrUiCIKIi6MeS8kARlA7Ugwh2ULKkDhZRWAQ1IUrQjDds2MoMpzjnSksTa+WyQRj2a7WdhMwcaq31rmdHRWF7t10/7ud5vp+/YN/7vsb7Ps9739eVZsvcevpxRo08v3lM3+NW7/A0XREecznu8zvyWOodPrUa8abLRMax+DsIJUgOuxzKZHJObXaO83rxmsncwWlDSbHQ4e3xcFyWNd7BM6MKLQ6Hhr7GEu/gNLXlOGdcGGewNqOn+T2V4WF8Z7zTI2j2jk3/J0KrcXefwfizKD339pPGfnJTAZv/0U2ZglKHA6bFwNlzIZic3Thkuu/7+fNuiBpNPws4fTYkFcbTm39k74DQrDbsO3cWT/CNcHByeNLw14ELWOUdmP7WYvbkP4atmO8dly6jNn5Ct7pEVECbd1yaNAevGm35BHpwnXdcmsIidJnVw+vsJOitCvuNNvs07vcOS0W6CwNGVdGDed5hs6wBJ022eQSt/LEvUcrix0Kb8yBf4RrvsFl1A34y2OA/kedt/kSqRzvGDSpkmA3ePDSb9PX/DI3eQWkWbsIXBlUyivu8g2bNeoO7fhfjL/5sC5V0NiNgxvGod9AseU59QydwiAOjUsNmCNwz3jGzIcJL6lvJkZFpYzMG9hXeE9BWim3q27gXDd4xScFVyKvXTp4PjZrK8JbyBg5juXdIUvSg+p2BnbwarqUc7ypv3ns85pt687FHuYr28o6ohivQrbptF9HiHZGMrFX+XeADdhKWlkOv6pb1YZF3RDK0GJ+r1tNHqPaOmCY1OK64WQW0x48XlC1z0KZ6h7QP9d4R06IO/YobNYjbvQOSkzvws2JlnUStd8A0qMYJxU3q5CZlWj12K1bXCVR5B0y6ShxW254/0OodjwKwQXHYyDH2jpqNcuxT25pfcKd3PArEbYqnA3r4o+BMleJttW3pw7Xe8SggDYqvmffwaNBMlGCn2pZs5Vt/+pcKtKvVWycPCE9XFP+T6mzGb1jnHY4CtUatt/QOXi6bnheVNmIQy7yjUcCa1MaNbfGOliRa9/2P8qw/TeFKtbcB7BdQpA1KG/AOZ/lQESrQoVSB7BpUhHuVmn21s1kDFSlCm0oNjvOy+VRuxKjKwj/iHYwSZp3KB9EomryDhaxBpdE3e7bSTNyNXxWqcZhzBC6nGl8qLPhQ/K2CaCaux6BCRQ6gxjtYiMrQo7DY/ezvR7OwAKcUqrKbMwX/S2PE56eo845FCVeDTxQqc7t3rNA8pbDIh3kZkwTMVfluusk7VkhWoyC+wF28hUVCKhVmUBewyjtWKJbigvjyvs9pviSoHJ3iNXqJQ0Un1eFb8aVlb3aSVood4nX6A4+mlyh8uXqNZ/5IQYQt4rV6MOsXhZ8VX9IXePGSlEQKt1Sf9g7l6QHxl38ve0eilHteuGILeMg7kpeFOCe8mNv56U/KIvETK+ex2DuUhxwGhBcyz2d/MhCJT6g+lb3ewRF2CS/ibr75JyOl4tXb4R3J2uPCC9jN3/3JUDm6hCs4U6NpbxG+a93LU39krBIfitbwGG72jmQlh29El+44hzGTg7n4WLSOz2Tl7sobosvWj3negSijaoUvC2/zDmRhheiSDWGBdyDKMOkeViu9A2m7GmcFl+s8Gr0DUcY1iXaxHEl3w7AS9Aou1jiavQMR4R7RV9pH0nw7YJPgQk2w0y8FYr1oXW+0/NP/AgAA///s3dtvVUUYBfB1oO1pwYoNEblVRatNoxFpipeowfJiePHyYGLwQkBTlZgU0IiJkYga8fJgvEchhhCiCRovD6gxKjFiAA2ggiCisVCp2JJClRZpbXE3TQQV6Dln1p5v9u76nT/Ab40zm9N9Zr7xqRaHicO0xDqOyD+Yh4S603l93Uh8TxykVdr2KwHJ4HXi7N6Zxh+2mbf9rtXGHwlMGbV56MvWcdimEw/+qo+KhGgMdtHmeB/qreMwlUVfalhDcwh11nFEjutidNHm+Q9pusr2adqwHMEc6zAiJ3Qrcaan5jX3ZHTTBuUl6zAiJ/Uqba73pKNrcBE20oZknQ79SuCy2ECb71+n4Qox3uafvZhoHUZkUJVopc35xG8KOo/2WqQH06zDiOSknrY5uAtV1mFcZPAx7Vk4zzqMSM7up837NUludMvbI73KOopIHjJ4hzb3E/u71zjsJw3BblRYhxHJy2j8Qpr97TjDOkxhWJ1/ejHdOopI3qZFM5ezAhLZKaiWFv9x6ygiBWGdEexNXsPQDK1h4kaUWIcRKUgWm0ir4IukvQqcSQreiWrrKCIFq4lmMGclJKpbYBmaSLEbrKOIOJlLWgnNGGEdJXeLSaHftQ4i4uw90mpYZB0kV5Wkrz0tOvcvKXA6fqWsh4NJ2Qr/BumJd711EBEK1l0YK62D5OJyUu8f7f2T9Hibsib6cKV1kMEMw1eUqO0Yax1FhGY8aVfshtB/DryJEvMIZlsHEaFqIK2MG62DnMxwbKOE/DT055xInlgnY3eEfHPQLErETpxrHUSEjtUb4xbrICdSjB8pAe+1DiISC053rJ0osg5yfJzT/5tDjSfiiNUfM8gOAVnKtQh/6cJvSbE6yhnZn0M8IHcP5dn2onUMkVgtpayTu61j/Fcppf9Juzb/SsqNwQHCSmkJ7d6gBZTnWqN1DJHY3Ze+tTISewmRtqfhGgSRQZRgB2G1tIZ0hfhCyjNthnUMES+upayXYC4NyUZ/kbjHWW0dQ8SbDwkrZk8ovwXMIYTpwQXWMUS8qaFcmDvLOka/DL4hRHnGOoaIVy8QVs2WEM7MzCAE2aeLP2SIGU05IHyNdQzgE0KMB6xDiHj3EGHlfGQd4iJC/582lFvHEPHuFPxGeARMsQ2xkhBhvm0EESOMO4RXWAaYSHiX2ZKkfuciRGXY47x+unGmXQDG3Wdz7coXMdZIWEFPWRV/KuFYwy5krcoXMVeKZuc11IFRNsXPJzy97rApXSQQdxFW0Tyb0r9zLjzIxgYiHhXjJ+d1tN1iQ9BVhCfXbf7LFgkMYyv9Ff7LXuFcdNOQ6P5XggqcE33GardDzsqj0eofs4oh8Q2xmPAeYLnvoisILY7T/Pt/dfS33TKsRdu/Ev+Jb/EmHsbVevX5P6Woj0bmLWyJRunYMWvF59FI3onzrQuMkXuLkE6c5rdk9w6A+1P6L+JUPJ/Dr7tdeB8zQ2vrZGQEbsYHODTomDXjWdRZFxuLUehwXk+ef053PwH4pN+CPSjB7Xm+GO3Ac6i0LtvUWdHjMr/JvxWzU9g5yn1HzWaf5V7qXO5hTPBZcOyGR1/5dxc4Eksxzrp8ExPwWoE7SZvQgGHW5VNVEvbUTvVX7jLnYpf7K9aDWqx3Go2DWDgkXogeVYRGx6+9m3CZdQgq91M1r/gqtRx/OJbah8m+io1dER6jXPawHmdbR/FmEr4kjFgvHgn5osw8TXEej999tQl1v+jY/BQzzXh8RpjKA592XGcdx4sbKK0wBj5rUvTnk/vtwZ721bo/vQPoY0JRQ7kO7ein12pTp0cLCB0kjv00odo6Eol7b611Psqsci5zawidzAguwT7qVB74LLGOFasnYhixtuj/RBpksM15LKriL/NB5yKDutOkYBdGX9n5k7n/s9g6WmwejWnEDqTkSln3+7UW5fuf/BsAAP//7J17aJdlFMfPr6U5RZPZNtFGYYiarIGXMlN/pAaRJZpYYRYUklZSBmVmpoaXwkuhRoRpZhdSRByUogZeulALujizLC9bmWHY3FbYps6t94eMsYvb3ud7znPe5/m9n+f/nXO+73nfvb/nPc854SkGXaz2Yv5fnuFHv/YtPx6RTXlCULGTXmyh9mhSBRl+HZF2sT98qT6QdtECneh7wWRO7QXcoR0iO7dTjahmxV7UVW6CdRgs6+BC2MGkrINWwOsg2lqnPNrdTpHLMj2q9fWWdpAMjIFVWCnrINoD4LAHG4CTxVM5tXZqh8nKbiua3asdJkyCjoIa/CFZI5kPX6Jn5ZyzRNdAYhvJXEf3a4fKxhRLip2I0sRcQ16AVRgu5xy6i3uOsuWcs8TrlpI5tbHlx3nJbhZe/+vXcu1gYXrCpwIEfwT8DLq2Wc41S+QFDzFbyVxHL2qHy8ICi4qpNslmYhuoQYnUz2y8WnmsjGMWWWMxmVMzE91/pe3SpCmK9HJ/zOxdsAZCXwJeAd363fkjnNkMfZDCLfdLg/HilnDrrPN1JhnwT6alMo79Arq1QsYti8yynMypsmnXOWhds5naIcOsBhX4ScIp/AyA+xXb31pPZvXhjyBDFRQr0g4aZgSsgcCZAPRVTmxrwhr9FJJZcfATC6+paGbhSIwoV8B9gp/id2ov6NKr/C5ZBm+EarK+0w4bAj05YrZmaIcNgz442TtuXA1/nRzE7ZJ1tqok80WHN7Wymc/+t3e5/7kZ7bp5nnte4AOgQ+KnlCxwSiWZ62i8duDGTFBS7E/twGESwU9mTINJvA5tAN1ZzOuOAllKyVxHs7VDNwYvazVdlsdkCLAMVIC5RSi6KXETrzsK3KqWzOu1QzfmXTXN3P/iNBhUoJTTmRtBZw5zOqPEg2rJvE87dGM+U9NsinboDBwBNWAcpvY06IoPfe4k+9m0vn7QDt0YfH6U6XpcO3QGloMaPMnnynbQlZF8rqgxRy2Zj2mHbsxxNc3c3TdpYDSoQSGXIx3AQSAVXky9eVktmU9ph26M1ncTPxqrdqR/IA0que674eDF2MLjhjJ6O9rHtUM3plRNsznaobNQCKrAtBWKvvw+yuOGMjp1gKl1QDt0Y+wfBKpflodlCzEDVIGp/9YOyIlaT+YAP6yWzJ9rh27MF2qaTdUOnYXrQBU+5nAiI/gNjzjh7h52Y0aqJfNG7dCNwSfemi7BvnhWwWYFVXAMTx0CXgofPgGmyFFL5rnaoRvzkppmPbRDZ2IlqAPDxKRnQBd8mANwiTKlZGau6raInQbqzddp7cDZGAsqwXAseAvkQCV1wF2ICJ8opXMv7cCN6aWkGNsXcHU6gp/gP8JdwAZg+3Mp7He3u7QOaYcNgbaRM1s+zVbEivBKUPPoM9z9QSANFKgk82rtsCHeVNFsoHbYjKD1Jz0x85NA88N4VIgI6FwEk3WbdtAQSQXF3H5nasooUI0JmHnsVHI1XcWjQkSYaz2ZXe+kmKBj1jXz4RxAA5ngKBrwK9w+yLi7JSwtcy3cGC3smqcdMsx8y4qd96TwrIGvID32IqYTYBGQLzUADdhtcfGvw/0A68kCj7SEXeu0A2ZnBaRHJfIO2Re8GHfzqRAR+tFFi8nsxwMUPdceZtVwtsGICBNBTfqYm8YKOWo9+P/VnA3WkrnME/1y6Iw1zd7WDlaAHLC3MlBIhk0DFBlQpE4P+ttSMk/XDpUNW92UyjwYP98Sv0KqAA15d0KG/fs1donpVpL5a+dHqTaQQd9Y0WyadqBCvAOpst3cMNbR5RE+BSJFAm7U0PaqoBu0w2SlL1WKa7ZVO0gxpkG6nDQ1ew14QRhOIkWU7uLd7nzoatuY+4QV+42ytEMUA20RbqhMEjJ6wbMioMYUgB9IW1+LtMMTYamgYuWUrx2eIJ2oBlJnhJlZbOvmIK8GkSNJVULJvNHx6r/LkaB1QopV0Sjt4ITBitAfMzO6BjLKcBAx4oyj/wSS+X2OLi4R5UqRHkFngyvhO5shhVaZGd0DGfWjL2vr3EKnmZN5lUd7/y2RgGfeNV1nTF9wnWIepNGnZkaxbwD+P5VTDKBDbKlc7Ukv27aYGUTKpdmP1F87HCuMh1QympbcDbw0edwaRJRMWsuSyqXB+0S6MIiOsmj2HnXRDsUS14NKdQ1vchBksNzTjayWuQec5n4hePU3uEQO05kWgsdcT9Bk7SAskgjuKEStgvAmsXMA+/k1iDSdaZHxqbcdXnWwaT/5tMtQscrg8ZGp7b5lsBkLBucBsFZEb/ArEHmyaEHIcwI1tI2GaLutylAqDHm+8jTNp+7abiuANVd7PrzB9ZBBH8Yzm9CRJgY3dXsqBA7Qc961rjCjN82m4nYoVkVbaUKgcHqCjaZbG97gfsjgnfwKOEQmjaEltJtKmx3kLKciWkdTHW71LUVveij4p1PUrMKyNlBxFy2m0dRJ20VVxkH3457wBksgg+nxcaZtMqkPDaYkjQ1edgdQrrY7TpAbKDU0UCwZKNcn7X7rX46B0P14LKy5DKj7XW2aP61jYrjpArUFORe2wKw39LwxKjyIiYlphb+gezLkfIBhkLEvZRSIiUljiqB78uZwxrDT2x/KKBATk8Zsgu7JkJUA2By8JTIKxMSkMViHzlnhjGG9yH3tzRYTowfWi3JZy3/0fwAAAP//7N1raI5hGAfwi4WcWg4lPojGWiNqc5pW0uygfDD5spR8IJHDRpklkfMh5bwmwjaHSGlz3BzmkFLYvvAFoS2KLxTZEO4NH6Tpvv3f69mb6/97Psm8//e53v6zd+/z3Hd7KqCwLJ0JEBmWA3XySFhYDRT2fy1oSRQPkqFOXgwLa4DCePEGUaz1hDp5PywMWQzkvc75ExmHLEHXFBKUAK1C+lzp9IlsawRa+SlkhY5+QNA3eaA3ASLDsDfmif5Bw6Cgy3oTIDLsCtTLIf5BY6Gg42oDILIMWxw8YKeubChot94EiAzbB/Vysn8Qth7gGr0JEBm2Duplvn/QPChokd4EiAxbCvUyYLfu5VBQgd4EiAybBfWyyD9oNRSUrTcBIsNyoV6u8g/CbjzM0JsAkWGZUC83+AfthILS9CZAZBj28fwO/yBst7uRehMgMmwU1MtS/yBsF/fhehMgMiwF6uVR/6AzUNAQtQEQWTYU6uVp/6BqKGig3gSIDMMW6z/rH3QBCuqrNwEiw/pDvaz2D/rXbZt/HL30JkBkWG+olxf8g7DbDrvoTYDIsG5QL2v8g64DMV/1zp/ItE7Q/oBX/YOQrcGb9c6fyLgWoJl1/jH8BkAUjyL6BnANiOFbACIdkb0FqAVi+EtAIh2R/RLwEhTEjwGJNET2MeB5KIgXAhFpiOxCoCooiJcCE2mI7FJg3gxEFH8iuxkIux04WW8CRIZFdjswFwQhij+RLQjCJcGI4k9kS4JtgoK4KCiRBmxR0PX+Qdiy4Dl6EyAyLA/qZcCy4MugIG4MQqQB2xik0D9oLhS0WG8CRIYVQr2c4x80Ewpaq3X+RKath3o53T8oCwraozcBIsP2Q72c5B+UDgWd0JsAkWGnoF6O9g9KgoICbjskIm9XoV4O9g/qBwU90JsAkWENUC8T/YM6y2cg6IXeBIgMawJa2SKdQqJeAVEftM6fyLSPQCsbw6KwHza665w/kWE9oU7eDwvD9gZK0pkAkWHJUCcDFgRrVQ6FTdGZAJFhuVAnD4eFbYfC5upMgMiw+VAnt4SFFUFhG3UmQGTYZqiTAbcCtcLuBjimMwEiw05CnZwRFjYeCrujMwEiw+5CnRwTFjYICnupMwEK0l9SZIJMlQJZICWyVcrklFRJrTvq5J476uXpz6O+7c91bX9X5b6qzH11iftXBZLnHiHFPRJ1vNdQJweEhXWGtiH8Kj10ZkDt6ut+apshS2SbVMpNeQxdNPLn8dE94g2pcI++xKWMkz4dfbrmYFcBNIddB9jqGRSYojED+k1XSZV8KZZDclvexLTuPsdrueWSi90zSHXPhLSNgF6tJ+GBdVDg1NhPgNr0knSZLbtc6ZsjL317xxd5KOWyVDLd/1OkYxr0CgXsDPzLQShwYewnYFqCpLmCVcojV7aOrvvfjtZvBRXumaa5Z0yxtBh6XQ6EB5ZAgXtjPwGTushEWSnn5V2HVzv0eCvn3BuEDG4WHyOl0Kuxor2H/Q4AAP//7J17bBVFFMa/XgTaWqkKWkVFqKJgQEBEJTWooRIDPoJawUaJgVIjRFGrqaJFJRHwhW8UCWrQEBENKuWRgCgIihFfaENB2vBSEbQUsdha2utUNDY8yr37zeyZ2d3f+Y8A850zM3dnduecOTx5VIMr9EcgZPRUnfYhasQnMms1WKo8iW6LYllF9UKSpwCa6EM1uCv5t44R/5CGXLXD3yQ+cXXbdsxSD5VjpMPrKCnkGjCJcmD/cQzZ4UkUIIr4hw4oxGLNn+9ssz+xCKPRXjrUzsHdC9yIDC+NMkVB4rhSdwwCzLEYgfn4S3x6+mX7sBLjcIJ02B3iGireP3prlCtBOF5vBAJKOm5GKXXoyl2rU57fFB0ZS4gHqUgv8dbo81SjUXHwI3E+XkK1+DSUtmpMQ1/prrCeOVSMn/HW6G1Uo2V6IxAoMtVu/0vxqWeTlaE4yjhogXIquoXeGh1ANVqPVL0xCAjnYmbAX/R5tb2YEX0uPCRp5PGvi70124Hs0D56o+A8MeRiPhrFJ5rdthJ50SnCA+Bu6op7T93ivgOM1BkDx0nHWKwXn1yuWLnafkaVpf+Hu617m/eGF1ENz9QXAafJwL34RXxSuWbbURSlFv3La1QkS703PIlquFxfBJwlA+PIdVSYbSceTuZCq8DyAxXFid4b5vIBGkN+1CMDE1AlPolct1/xQMhXAllkBD3kAfzHmWTTV+uLgmO0RmH05NdmO1Ec4qIj15LRy/bedAp5UOUxfVFwiBRcF73w027lzJPMaZ6k4kam5X1ENb5SVwwc4iJ8Jj5Zgmqf4gLp7hVgNRWzZVzjU6jGa9FWTwwc4Xg8iwbxaRJka8QsnCjdzb6STmaKTOaaH0p2WI6eKDhADCMESnOG0aowLkRHhS4ho3UN1/zJZPMeShE5ST98JT4xwmRrQpNANJ6M1EmsgM1U8+/riIHlpKqNkt2lOoNo9Wq7FYbPgwupKFXyArhExN8D//kmB+vEJ0NYbSMuk+5+w7TFHipCGm7pvJPspEt5CdZyNF6IkntErQHPBbqkyOVkfG7nJbCZSME9C9CXzNKOTI+tw3nSQ8EYU8nY9OYltMIuSsJaXoKFxFAcohp+tlsd7lE9EkS47WWVnqgsILvnNB0irOJULBMf9N6tTg2MJqtoZvv/xOXahEtxivSw0E5nMiaaXsEXkzJG6ZFhDYOc+N6/Q629FuI1TMRY5GMILkZP9VPc7ojetVN/qwdy1L/IV/9yIl5VD4C1TqQz/4KBPvS+n3BF+eIo0iPjIlLGu3pkWEEMEyw961erlosfqD3jGPUDlW3gBGZbdMHl6n+fivkot3StsA8PBmor8D4Zj356ZLQmP0VUB+Z+uPZkiRT99pNSNBnD0M3ns3Gt0B3DMQWLrct5XBiYa0fYT4C7cZQuKfPJThmgS4goPVApPrz3214sxyRcacmp+JNwlfoRWqFUScdlv1UGpLToQDIO8/RJuYOUMkWfFDGuwu/iQ3uPWuTfhQstXVG1QX/cjVL8IR6n3RgiHQwNcGnAcbVd00Z3Usp6fVKEGCe88y9TP6K5juRWHoW+eBhrRCPWqBS4zkYyBmfqFLOFFKPhQIIYrcmijIzVYgEKHC2tloXRWCT4unCGvj2wAP1I7zVkATRnJimHzEoWJEPoxd9ezMWNCXy2s51M5OMdofcDpQ6nCz1B+j5dr5wbSDkVXGEiMbLwhe/DthHLMTIAU785mRiFFQJ5E587unpKIbNw4xiqV1AmffBV0zdJX8mm92HJWiVK0FnabWNk4yFs8jmiG5yMZ3/S61q1ctUMd1l4XC1pXONsbPVxoDZgCfKc3rUmRtMFaW/7Wj9hC86SdjppniV9XqxfEpsWvMmxTUBvH4+/7sLjTPFmB+mKp7Dbt/j+jJ7SDidFDNtIjzWkAR8Ie0dAXC1r3OEC3670+BH3BGy/nyiZKPbtHOGvTqUMc/dyN1kXE7LYyjdPmxBlhL5kCnSiVo6Rga+Y1DKpuNWn9yy/OfQp+kXS1+/MyHqUlLXNkUSNXup5YX5AbkZhCHb8iRBDni8/AlWOrAJaYTvp6aNmhPWiu2CQGWFa6eFDsu9W9dyz8zivFG0wRm2GTMd9B86RdjQBhtB+9jEljd0EzDUlTBud6NcvR7I9GI80aTetJA0lxvMItuBUaTePyHukj5rPADbnEVJaHbLMidNAJr41OvwaMAsnSztpNR0x3fAnwu9xnLSTLdIR9aSHBj+4d6PDb/NFIWn4xOjQW21uaRYozjd8+vJjpEq72ALsRSBxXGhS3nekuA3WngaI4R2Dg646VNdZscRQaPSUwHvW9kUMFaRvW8zOsBI6+LZe5TDN4IB7i7+gKXR0NPqD/Jy0e4chl/bM8Inbs2mBs80K9Mj9xobaDlwv7ZyzDDP4QfZeaecOCXcPV5MZ/9T5NSmw1sL8rEHGXjyVqidZhHeyMM9QzzRgsLRzB9FezQ7Oq3XmRfLPyjvNi0yKrobO/f2BW6RdCwQFqDHSP1U4Q9q1AyiifSoxL/IMWmSZVS8CM/C9keH1tdouReihu6HPs2utKhiSQp+zafTnJ201Hfgr/JCZECmYa2RoTXOkfp8rpOIlI/00x6KH0WDam1X+CC2ghS7xR2gC3GdgUNVhtLRbgeRWI7cx2vMykL9ubqQ/QjM0FMi240hMjoGXfzsDfSG6LDl0mszBVm9Jmjp7C3dczUrtVYAOxyu02Df8ktoCmQYu+vgKnaTdCjSd8Y32Pquwoh7DbNqPl/0Ty5YsjqvFnPydwW9qH0pzkC7tVOA52sABodelncLpdAZAXK0hfIT/HZauEZivfRg9YtELpSCTQlemONiGC/s0lfbgS38Fj6UFV4suvDqp9nUOoEbrTjcEmyLNJcZ3iaYJH6vhrdptfkvmD2dour3cEx9oHT77UCDoSzgZoWHR3NwWCPpSTKuvQaa3pv8GAAD//+ydWWxVVRSG/xa4LUNJIEhRBgEjIQ6UQYuixiigiUSBKJIoBvRBMGI0BOUBkQc1QtSoiUYckClGY8QhaqJAAEVFRSsQJICJIAI+MCgKlpbS4z2YCtVye8/Z/1r7nHvXt97b/9/DuWdYe634LHYWvdtbVZzbqUunDhM8+ShuxjknzjaPiZ58ZAhFaBbpy76CMORT9GUjzLhmFvw+mqC0pmLjBmrLsf2eTqm459UEGOFDuHsK7S4vNXFd+xyeHrW41oMDo4lR1LuAVzw4yBA+Rm/1oBvurULCmKquegixbXU9blLXbzRnHPFdQAOq1PW7v04PcL+66pNUEE7R7VUvkLmStlwacaeydqMlJhEv6auVtZcT2s8d9vc9bT5hyAWaGOVgLG2pNGKaqnLjzNxHm9Ugu0I0mUFQ/ISq4mb0IhzP2KeaPcdLJJ2tqNpojbm0ed2oqLoj4XV0HXoqKv4fSwlDPlNNrXvPtaZYoqbZyIcSYmL3lWqqGYXoPHwAPJ2LCRlZ+1GhpPZ50hL53E77J45yrCfN7nNKijvjIEGt/mvL/7CCYELrdnobZYHsRHclvUYUemA3ZX63KOmdS9D6sZLWHFxPsHEIXRWUdqbkjx/BIAWtRhwGU6oHnlB5K9WNchpltILSVnGtExyGRp32Cwk6fWUvGvlxF2WOByooXUDQuSkZ508nE6wcV+jbeglB5xviKg03lhFmWf4ebxClFtUd4jrzoh3l2WuVuE73O4Adaq8rjbh0cq6tG2CAuErGm7M9XhLpW2QmwU6AG4VV9nfUV5+QSoZGboY5JwdLV6saT9kvM4RVRqAjpVjjduErWsbxFdFcUXUGj0ed5vkP4dahZc4NQMPQTaBrFcbBIPkSIWsdtNV4q15gRCXj1EhkhbA6Th9K3RT6ViknFDUIy4TJfmF/LLayE6gWVWZwuczhk+8josp6EMp/hcV0EpeKdg/BVoCXRDWeH/vc2EJRXQafRTFnugH9EqmredwtqjEWGewkGGsQLm4crxbg76gUVWXwqYyZaPOmqKrhlKPLPyXzcZSThFGDtoIaR8SaAJ/lS424xDlqW4/BgoraYTNlj0wR1OhAG1Ku/SxRlU9F1rMxOd9bjQhk8F3kuZZ9/n+Ysj92iP5EOjGJYvCv7LO6HGUR3xAfVshRNGQYgP2R5vpL0a01ELWU/XGboEZH2mArxeJa0RzncyNkLh7DdYJKDGmqcCDvud4geiStFJ9R9saW7F9KMLdSTAbCjTb64oe8VBzESFEdhjxDsDevuf5CuLXGNNLOuEVUpTMl+Jpi8zecLaqzIo/PMZ/4LbZkkOjaaufdBjwt/F29J6kV3fpknP/LxeWkrm3LxZVehXVn/O9bMCX5Q23kzRisOcNMN+IDhao671H2RCOGiyslwKrONl5BazWexbZml6xteA2jbfMXIFWYl30OP9VLqDZ72z9H4eQfMIG0IxYraCXQC0codn9Va9XUBUMxKnsxGIZuSv/R8EU79EV/DERv4SM/p+hOOSoX4E+co6TYmTmkK9779ktspJwSfEjaDSkqRN8eu0imrfmGkW6mk3bCTpT7thKFiSTbtbjItxXDiM0FtP7FN/u2EpVPScZrLBHXSClltE5U69L3MMzrwjvftxXDiMUzpB1wQviMrBCv0uxbPp6RPkaTMmICLPBtJR6VOEQagD0qjUMMg8dZ2Eda/QfS24mKUyEgjHfS9wxkFDElMUvPtBSTfZuJTwlW0obhQd9mDCNvZtPW/ep0//T1I2UFhgc27GCukQ5GUvr+hHEU5/k248pDtGvhAeFyjYbBoE/EMiS5IkHNP+LSFt/ShqMG7X3bMYyclGMDbb1/n9ziX1GoQj1tSF72bcYwcrKQttaPF04runm0QZGuFWQYLrDq/oTxuG8zPMoIHVub4hgu9W3HMFpkeHZ1stb5jsJ63L2GlhUV4Of0JkYYBUwlfqGt8UZc7dsOmxdpgxNWRiuoq6NRAHQgVcP8J17wbYdPB+JjQIC3k10c2SgySrGcuLq3Jqv1N4uhqCMO0pO+7RjGv7DO/YVxTLQ9mVdmEYcpwHTfdgzjJFOp67qAO1GWYhVxoBow1rchw8AYWuJvGCsK++G2Z4RWTa3HUVT7NmQUOcNop13COITevg1JM544XAH2oY9vQ0YR0wt7qOt5gm9DGvCSJcPYjC6+DRlFStc8e0zmG0WS6N4R26nD9hUqfFsyipDO+Ia6jn9EJ9+WtKgmHg8KY40lBhnKdCC1+26KunQW/ozLA9TBC9+dynZ3NYzTyeAj8gq+17clbZaQB/Ddwjg7baSANniLvHpf921Jn/aoIQ/issL+gmokhNLsduWu3E3+Un//BgAA///sneuLVWUUxp8zd+dWWpOOXRyowKhGTCEDgygjnZwPRcl88kPYfIjgEEEHIupEEINRNHSdsguTCUlYaKmVUokkdBuTyGJGrPFS0aQ2NaNO49ntzXCYcxntnDnvete+PL/nL3jetc7e77vPWuvVpMVoTYCn14M9QJEEgBheNpy1x4I/92+6rDR2e1Ba3dqWSMhZazhjz6BN25ImjxteTgfPcxdAhIjhaeP5+qi2KV3KjH9N9cop+C2AmKcMrxrP1S3M1ZkYML6sG1CpbYuEjHK8aTxPD+ICbVt+oBUjxpd2M2q0bZEQUWV04MeERsMz9bdUOgxODExrK6sDiSFq8ZHx/ExhlbYtP/Gw8QV2sAuN2rZICKjHToHsTGjb8hsvCizyVzxjkRKZiT0CmblO25b/qBTYZnnNwqEfsEAEmWe44XdC21i2PhUN2Cuw2Eej1WVFDLLA4KT/SX2P87SN+ZW5GBRY8H/Qrm2MBJDlGBbIxiPck56LhfhbYNHHOUGYFEkn/hXIxOHwjvw2xQqRhfe6BCJfc0UKJIakSA6Ocy9aCPeKLL6DTdFsuiRFUoN3hDLwPm1rQeEJoQDsQZO2NeJzZhu94y9TSW1rQcJ002Vah7BE2xrxMYvws1DmsVG9KMyPXUjrFOLa5ohPWY1RoazjqJqiKcN6oWA46GWfAMmhWqDZNy0Oq5sW5kcvTuobtGjbIz7iUrGTP8fVloD54cuTGsKt2vaIT7gJv4vlGQfWl8QMfCoWmnEkeTKLPDEkjN7um63dqNM2GHQaBDdn3vaM/YJRpgmbBbOLl9YZYRb6BIN0GMu0DRIlbsNRwczq47W1pjgfXwgGKoVuntMiRzW6jA+lzxRnURilDjsEg+W1aLZqWyQWuUp0V+ngc06jMk0ttomG7CTi/CQYCWLoFBhDmynOoxShCu+Khs3BdjRrmyTCyH7288SJ1GJUGL+WMVe/4k5tk0SQu/CbcAa9xbIfSWJ4TjiA3m0tl2jbJAI0i+8gHfSw6FcaifvZcnUCcQYyVMSwGn+K5w3vpbSE1LyATH2GK7VtEkPMxy4LGZPUthkl1mBMPKAn3ZBWaRslJVKBhBtJ6VwZ57Qf27SJjA/NVR8WaxslJXA99lnIkmEs1zYaRa4VGSKeqzPoxRxtq2QaNKNHsM1nUkdwnbbVqDIX31oIsHezQJLFwoGiEnH8ZSU39uEybbNRph4fWAmzg37crW2WFEg7Bixlxce85UebcpFrRafWTnYM+J75wiXjmXrN3WkQHxAX7evKlPdF4CJtu+QszEK30LUy+Urxbz8/0SE2zzVfx/EIBz34jkY8hhPWcmAEq7QNk2wWWDv3eRpyn/9s+PQLde4eUG6qX776eRT0I414z2ISOPgDCbZ9qlOFTtG5Pvn6kJN+/Io34NHW14AJHXLfPWz+1KLS/fEfthrvFLrYJeJvVrpndJsp4eAg7uHXYOtUYQ1+sRzpY2jTtk3+nyvwneXE8OYIJLkxtEaDu++yUQWarb24XNs4KYwavGE9PbyK8G5WhYnT7D5qbe/xPL3Ny+WDRdxCv2C+xrAeC7Wth5ZF2GDtf/5Mncb92tZJ8SzGTwrJ4mk32jkawjBLsUUpmj+6Dx4SSOqxTilpHPyAB3Ch9gKEgiY8iP1qcXyFl3sFmzswpJY8p7ERy7gXmDZl7nu/x2KNZ66Oo0N7CUjpzMZWtRTyNIgufhwsmjlIWK3tzNcOXKy9CMQMZXjIfRtrJtMYNmEFS0gKohy3432Vj32TOuUeO7hzCxXXWBkOdW4Nodc9EvAxcDa8LX+35cLeqbSf/+SEkVq8hJR6cnnlw89gCd8vWcRwA561XNY7tVJ4gR0e4eVGxe/J2Rp033VL+RhwuRpJ9KvHY0IDuEV7OYgsM9ClfL7MTri1uDmiw8er3R/bUzigHoO0xvAkG7uiQSu+VE+3TI3gE8QxT3tZrNGCTmy0OL6jEHEAfKSocH9wNu4VKE4H0IP2EM8frnAPPV34Wn2dczWKBMq1F0eH/wAAAP//7N1baBRXHMfxb7xBNFostN5RI0qhUKNrlRKpCmJ9ENTG6IMgWEL6UmMQ7CIiRFESaC31odSIoAap4qs3aEmroKgPioKKlmoCURDBWxW8pIj/3RcRUqPZnfmfmf19fk/G3ZnZmXNmz8yeOaeUTaLdvej1lCccYQNfpuhWVDlz2Mgx+2Te+7an/E6l9w4SL7WO/QR7S7d9V+5gFeO8d1KffWztmRZO8cx9X/5fHtjFiG7ElrQR7I55FKH3z3X2UEcmIbeoym1L62yL/3bfb2/Pf3bB9ZH3zpIQTOOke3F8tyJ7g8M0Wbvl0+C6E41mPmtps1aLb5/Ld80Jqrx3mYSjjBWxDzBVWB5Z0/pXvmORnQx8hqoYbGtexBp2cjqmabiKlQ6WuewxCVo5mwK9TdV77nCWAzTzLQuYEtEDrENsyV/ZGpo5aGuLcxjuYuYxGxNyKSUOxrI/iO7CheYpXVyk3arqL2ymgZUspNquzTNUWsYw3PL6h6/++X+Psf+ZlH9Ntb16pTXot9i7D9pSLnLLluj9mQrPS7tEGe1YuiQRvuCce1GNK90B9YqMOmeY5V20JBnKWM5V9wKrFC+XqdHPffI++lHrNqagUszcpF79/KQvcicB31FplMLSaZV/gHcxkiSLf/oppTjJTduW3ucqJEbxT0CpFJa7ZPVjnxTTENZz271gK72ni3WaxUeiMJDawEYSUN7MJWur6ZtfIpWboyYNnYXSFs3HJLH5jNZU9I1LR15wiM+9i4SUmpE0cd+98Jd6cnMyJ3fEBEm4YTSqz6BbLtPAUO8iIJKxC4KkPkeYzDzVrIsSlmHUc969YpRCrpDlQ+/DLdKTjF2R6r5AVHlkLa3Z3odY5O0qqOOMe2VJW07zTUQDnYhEYLw1VK+5V5s05CpNTPY+nCJ9MYOf9ChRn9PFj5qnV5IvN/1l6INkh5VOTZ0qaTODZvUZ6DVX2MZ070MlEpWJ1HM44LlyvNLNKbJ84n14ROIwlBp20eFe7ULITVpZSoX3IRGJX2V+ouwH7pXQI0/4w77zM96HQMRbf6sGa+1EcM+9UsaRf/MVfzaDvHe7SFj6UUUDB+h0r6RRpIPf7NNNDW5WQ5HgjGQJLfzFQ/dqW2ge8ifNLGaE9y4VSZ4yKlnGVo4mbDzCWxyxra6xrReRohhu18317LAr6DBPBrdty362Lay2LRWRCFXYtXQNWXZZA/sGz10q/DP+od224Hu+tq3RgzoiTsoYxUw7ITTyA/s4xgVrghf3pPDclnjBlrzX1tBoa5ppa1RHXZGAfcAEqpjHUlazzloLLWynlTYOWY5bc/3NHM//vc1esd1embV3rLZ3zrUlTLAliYiIiIiIiIiIiIiIiIiIiIiIiIhIcF4BAAD//wMA0Qpe5y7ulKEAAAAASUVORK5CYII=;" vertex="1" parent="WIyWlLk6GJQsqaUBKTNV-1">
          <mxGeometry x="78.08" y="569" width="42" height="42" as="geometry" />
        </mxCell>
        <mxCell id="z5JH_8kvvvPdWUhcaSUW-23" value="&lt;em style=&quot;font-family: Arial; font-size: medium; text-align: justify;&quot;&gt;¬&lt;/em&gt;" style="text;strokeColor=none;align=center;fillColor=none;html=1;verticalAlign=middle;whiteSpace=wrap;rounded=0;" vertex="1" parent="WIyWlLk6GJQsqaUBKTNV-1">
          <mxGeometry x="409.92" y="837" width="20.08" height="15" as="geometry" />
        </mxCell>
      </root>
    </mxGraphModel>
  </diagram>
</mxfile>
